<?xml version="1.0" encoding="UTF-8"?>
<svg id="Layer_1" data-name="Layer 1" xmlns="http://www.w3.org/2000/svg" viewBox="0 0 1366 768">
  <g>
    <g>
      <path d="M462.39,565.94c-3.72,0-6.76-.73-9.11-2.18-2.35-1.45-4.1-3.43-5.25-5.92-1.15-2.5-1.78-5.34-1.9-8.53-.04-1.68-.06-3.48-.06-5.4s.02-3.76.06-5.52c.12-3.19.76-6.05,1.9-8.56,1.14-2.52,2.89-4.49,5.25-5.92,2.35-1.43,5.39-2.15,9.11-2.15,2.91,0,5.38.41,7.43,1.23,2.05.82,3.71,1.89,5,3.22,1.29,1.33,2.25,2.76,2.88,4.3.63,1.53.99,3.04,1.07,4.51.04.37-.07.67-.34.89-.27.23-.58.34-.95.34h-1.23c-.33,0-.61-.09-.86-.28s-.41-.52-.49-1.01c-.78-3.64-2.24-6.14-4.39-7.49-2.15-1.35-4.86-2.03-8.13-2.03-3.72,0-6.68,1.05-8.87,3.16-2.19,2.11-3.37,5.47-3.53,10.1-.12,3.36-.12,6.79,0,10.31.16,4.62,1.34,7.99,3.53,10.1,2.19,2.11,5.15,3.16,8.87,3.16,3.27,0,5.98-.68,8.13-2.03,2.15-1.35,3.61-3.85,4.39-7.49.08-.49.25-.83.49-1.01s.53-.28.86-.28h1.23c.37,0,.68.11.95.34.27.23.38.52.34.89-.08,1.47-.44,2.98-1.07,4.51-.63,1.53-1.6,2.97-2.88,4.3-1.29,1.33-2.96,2.4-5,3.22-2.05.82-4.52,1.23-7.43,1.23Z" fill="#1c1c1c"/>
      <path d="M488.35,565.33c-.41,0-.74-.12-.98-.37s-.37-.57-.37-.98v-29.15c0-.41.12-.75.37-1.01.25-.27.57-.4.98-.4h.98c.41,0,.75.13,1.01.4.27.27.4.6.4,1.01v2.82c.74-1.43,1.8-2.5,3.19-3.19,1.39-.7,3.11-1.04,5.16-1.04h2.27c.41,0,.74.12.98.37s.37.57.37.98v.86c0,.41-.12.74-.37.98s-.57.37-.98.37h-2.64c-2.46,0-4.4.72-5.83,2.15-1.43,1.43-2.15,3.38-2.15,5.83v19.03c0,.41-.13.74-.4.98-.27.25-.6.37-1.01.37h-.98Z" fill="#1c1c1c"/>
      <path d="M520.2,565.94c-3.97,0-7.12-1.3-9.45-3.9-2.33-2.6-3.66-6-3.99-10.22-.04-.61-.06-1.43-.06-2.46s.02-1.84.06-2.46c.2-2.78.86-5.24,1.96-7.36,1.1-2.13,2.63-3.78,4.57-4.97,1.94-1.19,4.25-1.78,6.91-1.78,2.86,0,5.3.63,7.3,1.9,2,1.27,3.55,3.09,4.63,5.46,1.08,2.37,1.63,5.2,1.63,8.47v.92c0,.41-.13.74-.4.98-.27.25-.6.37-1.01.37h-21.85v.61c.08,1.84.51,3.59,1.29,5.25.78,1.66,1.88,3.01,3.31,4.05,1.43,1.04,3.13,1.57,5.09,1.57,1.76,0,3.22-.27,4.39-.8,1.17-.53,2.1-1.11,2.79-1.75.69-.63,1.14-1.11,1.35-1.44.37-.53.65-.85.86-.95.2-.1.53-.15.98-.15h.98c.37,0,.68.11.95.34.27.23.38.52.34.89-.04.57-.36,1.28-.95,2.12-.59.84-1.43,1.67-2.52,2.49-1.08.82-2.4,1.49-3.96,2.03-1.56.53-3.29.8-5.22.8ZM510.5,547.47h19.52v-.25c0-2.05-.39-3.89-1.17-5.52-.78-1.64-1.9-2.94-3.38-3.9-1.47-.96-3.23-1.44-5.28-1.44s-3.8.48-5.25,1.44c-1.45.96-2.56,2.26-3.31,3.9-.76,1.64-1.14,3.48-1.14,5.52v.25Z" fill="#1c1c1c"/>
      <path d="M550.46,565.94c-1.96,0-3.77-.41-5.43-1.23-1.66-.82-3-1.91-4.02-3.28-1.02-1.37-1.53-2.92-1.53-4.63,0-2.78,1.13-5.01,3.38-6.69,2.25-1.68,5.18-2.76,8.78-3.25l9.7-1.35v-2.15c0-2.17-.67-3.88-1.99-5.13-1.33-1.25-3.45-1.87-6.35-1.87-2.13,0-3.85.42-5.16,1.26-1.31.84-2.21,1.93-2.7,3.28-.21.61-.59.92-1.17.92h-.98c-.49,0-.84-.13-1.04-.4-.21-.27-.31-.58-.31-.95,0-.57.21-1.29.64-2.15.43-.86,1.09-1.71,1.99-2.55.9-.84,2.07-1.54,3.5-2.12,1.43-.57,3.17-.86,5.22-.86,2.41,0,4.41.33,5.98.98,1.57.65,2.8,1.5,3.68,2.55.88,1.04,1.5,2.2,1.87,3.47.37,1.27.55,2.52.55,3.74v20.44c0,.41-.12.74-.37.98s-.57.37-.98.37h-1.04c-.41,0-.74-.12-.98-.37-.25-.25-.37-.57-.37-.98v-2.88c-.49.74-1.19,1.47-2.09,2.21-.9.74-2.06,1.36-3.47,1.87-1.41.51-3.18.77-5.31.77ZM551.07,562.38c1.88,0,3.6-.41,5.16-1.23,1.55-.82,2.79-2.08,3.71-3.77.92-1.7,1.38-3.84,1.38-6.41v-2.09l-7.92,1.1c-3.36.45-5.89,1.23-7.61,2.33-1.72,1.1-2.58,2.5-2.58,4.17,0,1.35.39,2.46,1.17,3.31.78.86,1.77,1.5,2.98,1.93,1.21.43,2.44.64,3.71.64Z" fill="#1c1c1c"/>
      <path d="M585.51,565.33c-2.13,0-3.81-.45-5.03-1.35-1.23-.9-2.09-2.13-2.58-3.68-.49-1.55-.74-3.29-.74-5.22v-18.11h-4.79c-.41,0-.74-.12-.98-.37s-.37-.57-.37-.98v-.86c0-.41.12-.74.37-.98s.57-.37.98-.37h4.79v-10.31c0-.41.12-.74.37-.98s.57-.37.98-.37h1.04c.41,0,.74.12.98.37s.37.57.37.98v10.31h7.61c.41,0,.74.12.98.37s.37.57.37.98v.86c0,.41-.12.74-.37.98s-.57.37-.98.37h-7.61v17.86c0,2.17.36,3.87,1.07,5.09.72,1.23,1.99,1.84,3.84,1.84h3.31c.41,0,.74.12.98.37s.37.57.37.98v.86c0,.41-.12.74-.37.98s-.57.37-.98.37h-3.62Z" fill="#1c1c1c"/>
      <path d="M597.48,526.85c-.41,0-.74-.12-.98-.37s-.37-.57-.37-.98v-2.33c0-.41.12-.75.37-1.01.25-.27.57-.4.98-.4h2.33c.41,0,.75.13,1.01.4.27.27.4.6.4,1.01v2.33c0,.41-.13.74-.4.98-.27.25-.6.37-1.01.37h-2.33ZM598.15,565.33c-.41,0-.74-.12-.98-.37s-.37-.57-.37-.98v-29.22c0-.41.12-.74.37-.98s.57-.37.98-.37h1.04c.41,0,.74.12.98.37s.37.57.37.98v29.22c0,.41-.12.74-.37.98s-.57.37-.98.37h-1.04Z" fill="#1c1c1c"/>
      <path d="M621.47,565.33c-.65,0-1.16-.14-1.5-.43-.35-.29-.62-.65-.83-1.1l-11.29-28.48c-.08-.25-.12-.47-.12-.68,0-.33.12-.61.37-.86s.53-.37.86-.37h1.29c.41,0,.73.11.95.34.22.23.36.42.4.58l10.37,26.51,10.37-26.51c.08-.16.22-.36.43-.58.2-.22.51-.34.92-.34h1.29c.33,0,.61.12.86.37s.37.53.37.86c0,.21-.04.43-.12.68l-11.29,28.48c-.16.45-.43.82-.8,1.1-.37.29-.88.43-1.53.43h-.98Z" fill="#1c1c1c"/>
      <path d="M654.13,565.94c-3.97,0-7.12-1.3-9.45-3.9-2.33-2.6-3.66-6-3.99-10.22-.04-.61-.06-1.43-.06-2.46s.02-1.84.06-2.46c.2-2.78.86-5.24,1.96-7.36,1.1-2.13,2.63-3.78,4.57-4.97,1.94-1.19,4.25-1.78,6.91-1.78,2.86,0,5.3.63,7.3,1.9,2,1.27,3.55,3.09,4.63,5.46,1.08,2.37,1.63,5.2,1.63,8.47v.92c0,.41-.13.74-.4.98-.27.25-.6.37-1.01.37h-21.85v.61c.08,1.84.51,3.59,1.29,5.25.78,1.66,1.88,3.01,3.31,4.05,1.43,1.04,3.13,1.57,5.09,1.57,1.76,0,3.22-.27,4.39-.8,1.17-.53,2.1-1.11,2.79-1.75.69-.63,1.14-1.11,1.35-1.44.37-.53.65-.85.86-.95.2-.1.53-.15.98-.15h.98c.37,0,.68.11.95.34.27.23.38.52.34.89-.04.57-.36,1.28-.95,2.12-.59.84-1.43,1.67-2.52,2.49-1.08.82-2.4,1.49-3.96,2.03-1.56.53-3.29.8-5.22.8ZM644.43,547.47h19.52v-.25c0-2.05-.39-3.89-1.17-5.52-.78-1.64-1.9-2.94-3.38-3.9-1.47-.96-3.23-1.44-5.28-1.44s-3.8.48-5.25,1.44c-1.45.96-2.56,2.26-3.31,3.9-.76,1.64-1.14,3.48-1.14,5.52v.25Z" fill="#1c1c1c"/>
    </g>
    <line x1="234.49" y1="543.85" x2="437.46" y2="543.85" fill="none" stroke="#191919" stroke-linecap="round" stroke-miterlimit="10" stroke-width="1.2"/>
    <g>
      <path d="M387.38,443.56l50.58-9.19v-23.75c0-2.15-1.96-3.89-4.38-3.89h-19.38c-.21.38-.47.78-.78,1.18l-27.14,34.15c-.57.72.14,1.68,1.11,1.5Z" fill="#fff" stroke="#000" stroke-miterlimit="10" stroke-width=".65"/>
      <path d="M363.05,410.25v42.15l36.29-45.67h-32.32c-2.19,0-3.97,1.58-3.97,3.52Z" fill="#fff" stroke="#000" stroke-miterlimit="10" stroke-width=".65"/>
      <path d="M373.95,457.57l-10.9,13.72v37.55c0,1.32,1.2,2.38,2.68,2.38h25.38l5.68-54.48c.21-1.98-1.8-3.57-3.99-3.18l-17.38,3.15c-.6.11-1.13.42-1.48.86Z" fill="#fff" stroke="#000" stroke-miterlimit="10" stroke-width=".65"/>
      <path d="M403.37,511.22h30.05c2.51,0,4.54-1.81,4.54-4.03v-61.85l-24.21,4.4c-2.39.43-4.18,2.2-4.4,4.36l-5.98,57.13Z" fill="#fff" stroke="#000" stroke-miterlimit="10" stroke-width=".65"/>
    </g>
    <path d="M234.48,511.22v-103.38h27.87c4.58,0,8.92.34,13.01,1.02,4.1.68,7.73,1.98,10.9,3.89s5.66,4.64,7.46,8.17c1.8,3.53,2.71,8.19,2.71,13.98,0,4.17-.64,7.68-1.92,10.53-1.28,2.85-3.08,5.13-5.42,6.83-2.33,1.7-5.13,2.85-8.39,3.45,4.14.51,7.62,1.81,10.44,3.89,2.82,2.09,4.95,4.87,6.41,8.36,1.45,3.49,2.18,7.7,2.18,12.63,0,5.36-.73,9.98-2.18,13.85-1.45,3.87-3.55,7.04-6.27,9.51-2.73,2.47-6.1,4.3-10.11,5.49-4.01,1.19-8.61,1.79-13.81,1.79h-32.89ZM258.12,449.19h4.62c3.61,0,6.34-.53,8.19-1.6,1.85-1.06,3.1-2.62,3.77-4.66s.99-4.51.99-7.4c0-2.72-.51-5-1.52-6.83-1.01-1.83-2.51-3.21-4.49-4.15-1.98-.94-4.47-1.4-7.46-1.4h-4.1v26.04ZM258.12,495.27h5.02c5.2,0,8.79-1.28,10.77-3.83,1.98-2.55,2.97-6.3,2.97-11.23,0-3.91-.44-7.02-1.32-9.32-.88-2.3-2.34-3.98-4.36-5.04-2.03-1.06-4.76-1.6-8.19-1.6h-4.89v31.01Z" fill="#1c1c1c"/>
    <path d="M306.45,511.22v-103.38h21.28c1.31,0,2.37,1.06,2.37,2.37v85.57h22.45c1.17,0,2.13.95,2.13,2.13v13.32h-48.22Z" fill="#1c1c1c"/>
    <path d="M459.06,511.22l-12.95-103.38h17.32c1.57,0,2.89,1.19,3.05,2.75l6.05,57.49,7.7-57.45c.2-1.52,1.5-2.66,3.04-2.66h10.37c1.53,0,2.82,1.12,3.04,2.64l8.08,57.09,6.18-57.12c.17-1.56,1.48-2.74,3.05-2.74h17.06l-12.81,103.38h-18.8c-1.04,0-1.93-.76-2.08-1.79l-8.39-57.47c-.08-.52-.82-.51-.89,0l-7.9,57.45c-.14,1.04-1.03,1.81-2.08,1.81h-19.04Z" fill="#1c1c1c"/>
    <path d="M538.14,511.22v-103.38h27.08c9.33,0,16.6,1.13,21.8,3.38,5.2,2.26,8.85,5.79,10.96,10.59,2.11,4.81,3.17,11.04,3.17,18.7v37.52c0,7.74-1.06,14.06-3.17,18.95-2.11,4.89-5.75,8.49-10.9,10.78-5.15,2.3-12.35,3.45-21.6,3.45h-27.35ZM561.78,495.39h3.7c3.61,0,6.21-.51,7.79-1.53,1.59-1.02,2.58-2.55,2.97-4.59.4-2.04.59-4.59.59-7.66v-45.05c0-3.06-.24-5.53-.73-7.4-.48-1.87-1.52-3.23-3.1-4.08-1.59-.85-4.14-1.28-7.66-1.28h-3.57v71.6Z" fill="#1c1c1c"/>
    <path d="M639.28,511.22c-6.69,0-12.29-1.15-16.78-3.45-4.49-2.3-7.88-5.85-10.17-10.66-2.29-4.81-3.57-11.04-3.83-18.7l20.21-2.94c.09,4.43.51,8,1.26,10.72.75,2.72,1.8,4.68,3.17,5.87,1.36,1.19,3.02,1.79,4.95,1.79,2.46,0,4.07-.81,4.82-2.43.75-1.62,1.12-3.32,1.12-5.1,0-4.25-1.06-7.85-3.17-10.78-2.11-2.94-4.98-5.89-8.59-8.87l-9.25-7.79c-4.05-3.32-7.46-7.08-10.24-11.3-2.77-4.21-4.16-9.42-4.16-15.63,0-8.76,2.69-15.46,8.06-20.1,5.37-4.64,12.68-6.96,21.93-6.96,5.72,0,10.32.94,13.81,2.81,3.48,1.87,6.12,4.32,7.93,7.34,1.8,3.02,3.04,6.21,3.7,9.57.66,3.36,1.03,6.57,1.12,9.64l-20.34,2.43c-.09-3.06-.29-5.72-.59-7.98-.31-2.25-.95-4-1.92-5.23-.97-1.23-2.47-1.85-4.49-1.85-2.2,0-3.81.89-4.82,2.68-1.01,1.79-1.52,3.57-1.52,5.36,0,3.83.95,6.96,2.84,9.38,1.89,2.42,4.38,4.96,7.46,7.59l8.85,7.53c4.67,3.83,8.61,8.17,11.82,13.02,3.21,4.85,4.82,10.85,4.82,18,0,4.85-1.15,9.25-3.43,13.21-2.29,3.96-5.53,7.08-9.71,9.38-4.18,2.3-9.14,3.45-14.86,3.45Z" fill="#1c1c1c"/>
  </g>
  <g>
    <g>
      <path d="M968.93,565.94c-3.72,0-6.76-.73-9.11-2.18-2.35-1.45-4.1-3.43-5.25-5.92-1.15-2.5-1.78-5.34-1.9-8.53-.04-1.68-.06-3.48-.06-5.4s.02-3.76.06-5.52c.12-3.19.76-6.05,1.9-8.56,1.14-2.52,2.89-4.49,5.25-5.92,2.35-1.43,5.39-2.15,9.11-2.15,2.91,0,5.38.41,7.43,1.23,2.05.82,3.71,1.89,5,3.22,1.29,1.33,2.25,2.76,2.88,4.3.63,1.53.99,3.04,1.07,4.51.04.37-.07.67-.34.89-.27.23-.58.34-.95.34h-1.23c-.33,0-.61-.09-.86-.28s-.41-.52-.49-1.01c-.78-3.64-2.24-6.14-4.39-7.49-2.15-1.35-4.86-2.03-8.13-2.03-3.72,0-6.68,1.05-8.87,3.16-2.19,2.11-3.37,5.47-3.53,10.1-.12,3.36-.12,6.79,0,10.31.16,4.62,1.34,7.99,3.53,10.1,2.19,2.11,5.15,3.16,8.87,3.16,3.27,0,5.98-.68,8.13-2.03,2.15-1.35,3.61-3.85,4.39-7.49.08-.49.25-.83.49-1.01s.53-.28.86-.28h1.23c.37,0,.68.11.95.34.27.23.38.52.34.89-.08,1.47-.44,2.98-1.07,4.51-.63,1.53-1.6,2.97-2.88,4.3-1.29,1.33-2.96,2.4-5,3.22-2.05.82-4.52,1.23-7.43,1.23Z" fill="#1c1c1c"/>
      <path d="M994.89,565.33c-.41,0-.74-.12-.98-.37s-.37-.57-.37-.98v-29.15c0-.41.12-.75.37-1.01.25-.27.57-.4.98-.4h.98c.41,0,.75.13,1.01.4.27.27.4.6.4,1.01v2.82c.74-1.43,1.8-2.5,3.19-3.19,1.39-.7,3.11-1.04,5.16-1.04h2.27c.41,0,.74.12.98.37s.37.57.37.98v.86c0,.41-.12.74-.37.98s-.57.37-.98.37h-2.64c-2.46,0-4.4.72-5.83,2.15-1.43,1.43-2.15,3.38-2.15,5.83v19.03c0,.41-.13.74-.4.98-.27.25-.6.37-1.01.37h-.98Z" fill="#1c1c1c"/>
      <path d="M1026.74,565.94c-3.97,0-7.12-1.3-9.45-3.9-2.33-2.6-3.66-6-3.99-10.22-.04-.61-.06-1.43-.06-2.46s.02-1.84.06-2.46c.2-2.78.86-5.24,1.96-7.36,1.1-2.13,2.63-3.78,4.57-4.97,1.94-1.19,4.25-1.78,6.91-1.78,2.86,0,5.3.63,7.3,1.9,2,1.27,3.55,3.09,4.63,5.46,1.08,2.37,1.63,5.2,1.63,8.47v.92c0,.41-.13.74-.4.98-.27.25-.6.37-1.01.37h-21.85v.61c.08,1.84.51,3.59,1.29,5.25.78,1.66,1.88,3.01,3.31,4.05,1.43,1.04,3.13,1.57,5.09,1.57,1.76,0,3.22-.27,4.39-.8,1.17-.53,2.1-1.11,2.79-1.75.69-.63,1.14-1.11,1.35-1.44.37-.53.65-.85.86-.95.2-.1.53-.15.98-.15h.98c.37,0,.68.11.95.34.27.23.38.52.34.89-.04.57-.36,1.28-.95,2.12-.59.84-1.43,1.67-2.52,2.49-1.08.82-2.4,1.49-3.96,2.03-1.56.53-3.29.8-5.22.8ZM1017.05,547.47h19.52v-.25c0-2.05-.39-3.89-1.17-5.52-.78-1.64-1.9-2.94-3.38-3.9-1.47-.96-3.23-1.44-5.28-1.44s-3.8.48-5.25,1.44c-1.45.96-2.56,2.26-3.31,3.9-.76,1.64-1.14,3.48-1.14,5.52v.25Z" fill="#1c1c1c"/>
      <path d="M1057,565.94c-1.96,0-3.77-.41-5.43-1.23-1.66-.82-3-1.91-4.02-3.28-1.02-1.37-1.53-2.92-1.53-4.63,0-2.78,1.13-5.01,3.38-6.69,2.25-1.68,5.18-2.76,8.78-3.25l9.7-1.35v-2.15c0-2.17-.67-3.88-1.99-5.13-1.33-1.25-3.45-1.87-6.35-1.87-2.13,0-3.85.42-5.16,1.26-1.31.84-2.21,1.93-2.7,3.28-.21.61-.59.92-1.17.92h-.98c-.49,0-.84-.13-1.04-.4-.21-.27-.31-.58-.31-.95,0-.57.21-1.29.64-2.15.43-.86,1.09-1.71,1.99-2.55.9-.84,2.07-1.54,3.5-2.12,1.43-.57,3.17-.86,5.22-.86,2.41,0,4.41.33,5.98.98,1.57.65,2.8,1.5,3.68,2.55.88,1.04,1.5,2.2,1.87,3.47.37,1.27.55,2.52.55,3.74v20.44c0,.41-.12.74-.37.98s-.57.37-.98.37h-1.04c-.41,0-.74-.12-.98-.37-.25-.25-.37-.57-.37-.98v-2.88c-.49.74-1.19,1.47-2.09,2.21-.9.74-2.06,1.36-3.47,1.87-1.41.51-3.18.77-5.31.77ZM1057.62,562.38c1.88,0,3.6-.41,5.16-1.23,1.55-.82,2.79-2.08,3.71-3.77.92-1.7,1.38-3.84,1.38-6.41v-2.09l-7.92,1.1c-3.36.45-5.89,1.23-7.61,2.33-1.72,1.1-2.58,2.5-2.58,4.17,0,1.35.39,2.46,1.17,3.31.78.86,1.77,1.5,2.98,1.93,1.21.43,2.44.64,3.71.64Z" fill="#1c1c1c"/>
      <path d="M1092.05,565.33c-2.13,0-3.81-.45-5.03-1.35-1.23-.9-2.09-2.13-2.58-3.68-.49-1.55-.74-3.29-.74-5.22v-18.11h-4.79c-.41,0-.74-.12-.98-.37s-.37-.57-.37-.98v-.86c0-.41.12-.74.37-.98s.57-.37.98-.37h4.79v-10.31c0-.41.12-.74.37-.98s.57-.37.98-.37h1.04c.41,0,.74.12.98.37s.37.57.37.98v10.31h7.61c.41,0,.74.12.98.37s.37.57.37.98v.86c0,.41-.12.74-.37.98s-.57.37-.98.37h-7.61v17.86c0,2.17.36,3.87,1.07,5.09.72,1.23,1.99,1.84,3.84,1.84h3.31c.41,0,.74.12.98.37s.37.57.37.98v.86c0,.41-.12.74-.37.98s-.57.37-.98.37h-3.62Z" fill="#1c1c1c"/>
      <path d="M1104.02,526.85c-.41,0-.74-.12-.98-.37s-.37-.57-.37-.98v-2.33c0-.41.12-.75.37-1.01.25-.27.57-.4.98-.4h2.33c.41,0,.75.13,1.01.4.27.27.4.6.4,1.01v2.33c0,.41-.13.74-.4.98-.27.25-.6.37-1.01.37h-2.33ZM1104.69,565.33c-.41,0-.74-.12-.98-.37s-.37-.57-.37-.98v-29.22c0-.41.12-.74.37-.98s.57-.37.98-.37h1.04c.41,0,.74.12.98.37s.37.57.37.98v29.22c0,.41-.12.74-.37.98s-.57.37-.98.37h-1.04Z" fill="#1c1c1c"/>
      <path d="M1128.02,565.33c-.65,0-1.16-.14-1.5-.43-.35-.29-.62-.65-.83-1.1l-11.29-28.48c-.08-.25-.12-.47-.12-.68,0-.33.12-.61.37-.86s.53-.37.86-.37h1.29c.41,0,.73.11.95.34.22.23.36.42.4.58l10.37,26.51,10.37-26.51c.08-.16.22-.36.43-.58.2-.22.51-.34.92-.34h1.29c.33,0,.61.12.86.37s.37.53.37.86c0,.21-.04.43-.12.68l-11.29,28.48c-.16.45-.43.82-.8,1.1-.37.29-.88.43-1.53.43h-.98Z" fill="#1c1c1c"/>
      <path d="M1160.67,565.94c-3.97,0-7.12-1.3-9.45-3.9-2.33-2.6-3.66-6-3.99-10.22-.04-.61-.06-1.43-.06-2.46s.02-1.84.06-2.46c.2-2.78.86-5.24,1.96-7.36,1.1-2.13,2.63-3.78,4.57-4.97,1.94-1.19,4.25-1.78,6.91-1.78,2.86,0,5.3.63,7.3,1.9,2,1.27,3.55,3.09,4.63,5.46,1.08,2.37,1.63,5.2,1.63,8.47v.92c0,.41-.13.74-.4.98-.27.25-.6.37-1.01.37h-21.85v.61c.08,1.84.51,3.59,1.29,5.25.78,1.66,1.88,3.01,3.31,4.05,1.43,1.04,3.13,1.57,5.09,1.57,1.76,0,3.22-.27,4.39-.8,1.17-.53,2.1-1.11,2.79-1.75.69-.63,1.14-1.11,1.35-1.44.37-.53.65-.85.86-.95.2-.1.53-.15.98-.15h.98c.37,0,.68.11.95.34.27.23.38.52.34.89-.04.57-.36,1.28-.95,2.12-.59.84-1.43,1.67-2.52,2.49-1.08.82-2.4,1.49-3.96,2.03-1.56.53-3.29.8-5.22.8ZM1150.97,547.47h19.52v-.25c0-2.05-.39-3.89-1.17-5.52-.78-1.64-1.9-2.94-3.38-3.9-1.47-.96-3.23-1.44-5.28-1.44s-3.8.48-5.25,1.44c-1.45.96-2.56,2.26-3.31,3.9-.76,1.64-1.14,3.48-1.14,5.52v.25Z" fill="#1c1c1c"/>
    </g>
    <line x1="741.04" y1="543.85" x2="944" y2="543.85" fill="none" stroke="#191919" stroke-linecap="round" stroke-miterlimit="10" stroke-width="1.2"/>
    <g>
      <path d="M893.92,443.56l50.58-9.19v-23.75c0-2.15-1.96-3.89-4.38-3.89h-19.38c-.21.38-.47.78-.78,1.18l-27.14,34.15c-.57.72.14,1.68,1.11,1.5Z" fill="#1c1c1c"/>
      <path d="M869.59,410.25v42.15l36.29-45.67h-32.32c-2.19,0-3.97,1.58-3.97,3.52Z" fill="#1c1c1c"/>
      <path d="M880.49,457.57l-10.9,13.72v37.55c0,1.32,1.2,2.38,2.68,2.38h25.38l5.68-54.48c.21-1.98-1.8-3.57-3.99-3.18l-17.38,3.15c-.6.11-1.13.42-1.48.86Z" fill="#1c1c1c"/>
      <path d="M909.92,511.22h30.05c2.51,0,4.54-1.81,4.54-4.03v-61.85l-24.21,4.4c-2.39.43-4.18,2.2-4.4,4.36l-5.98,57.13Z" fill="#1c1c1c"/>
    </g>
    <path d="M741.02,511.22v-103.38h27.87c4.58,0,8.92.34,13.01,1.02,4.1.68,7.73,1.98,10.9,3.89,3.17,1.91,5.66,4.64,7.46,8.17,1.8,3.53,2.71,8.19,2.71,13.98,0,4.17-.64,7.68-1.92,10.53-1.28,2.85-3.08,5.13-5.42,6.83-2.33,1.7-5.13,2.85-8.39,3.45,4.14.51,7.62,1.81,10.44,3.89,2.82,2.09,4.95,4.87,6.41,8.36,1.45,3.49,2.18,7.7,2.18,12.63,0,5.36-.73,9.98-2.18,13.85-1.45,3.87-3.55,7.04-6.27,9.51-2.73,2.47-6.1,4.3-10.11,5.49-4.01,1.19-8.61,1.79-13.81,1.79h-32.89ZM764.67,449.19h4.62c3.61,0,6.34-.53,8.19-1.6,1.85-1.06,3.1-2.62,3.77-4.66s.99-4.51.99-7.4c0-2.72-.51-5-1.52-6.83-1.01-1.83-2.51-3.21-4.49-4.15-1.98-.94-4.47-1.4-7.46-1.4h-4.1v26.04ZM764.67,495.27h5.02c5.2,0,8.79-1.28,10.77-3.83,1.98-2.55,2.97-6.3,2.97-11.23,0-3.91-.44-7.02-1.32-9.32-.88-2.3-2.34-3.98-4.36-5.04-2.03-1.06-4.76-1.6-8.19-1.6h-4.89v31.01Z" fill="#1c1c1c"/>
    <path d="M812.99,511.22v-103.38h21.28c1.31,0,2.37,1.06,2.37,2.37v85.57h22.45c1.17,0,2.13.95,2.13,2.13v13.32h-48.22Z" fill="#1c1c1c"/>
    <path d="M965.6,511.22l-12.95-103.38h17.32c1.57,0,2.89,1.19,3.05,2.75l6.05,57.49,7.7-57.45c.2-1.52,1.5-2.66,3.04-2.66h10.37c1.53,0,2.82,1.12,3.04,2.64l8.08,57.09,6.18-57.12c.17-1.56,1.48-2.74,3.05-2.74h17.06l-12.81,103.38h-18.8c-1.04,0-1.93-.76-2.08-1.79l-8.39-57.47c-.08-.52-.82-.51-.89,0l-7.9,57.45c-.14,1.04-1.03,1.81-2.08,1.81h-19.04Z" fill="#1c1c1c"/>
    <path d="M1044.68,511.22v-103.38h27.08c9.33,0,16.6,1.13,21.8,3.38,5.2,2.26,8.85,5.79,10.96,10.59,2.11,4.81,3.17,11.04,3.17,18.7v37.52c0,7.74-1.06,14.06-3.17,18.95-2.11,4.89-5.75,8.49-10.9,10.78-5.15,2.3-12.35,3.45-21.6,3.45h-27.35ZM1068.33,495.39h3.7c3.61,0,6.21-.51,7.79-1.53s2.58-2.55,2.97-4.59c.4-2.04.59-4.59.59-7.66v-45.05c0-3.06-.24-5.53-.73-7.4-.48-1.87-1.52-3.23-3.1-4.08-1.59-.85-4.14-1.28-7.66-1.28h-3.57v71.6Z" fill="#1c1c1c"/>
    <path d="M1145.83,511.22c-6.69,0-12.29-1.15-16.78-3.45-4.49-2.3-7.88-5.85-10.17-10.66-2.29-4.81-3.57-11.04-3.83-18.7l20.21-2.94c.09,4.43.51,8,1.26,10.72.75,2.72,1.8,4.68,3.17,5.87,1.36,1.19,3.02,1.79,4.95,1.79,2.46,0,4.07-.81,4.82-2.43.75-1.62,1.12-3.32,1.12-5.1,0-4.25-1.06-7.85-3.17-10.78-2.11-2.94-4.98-5.89-8.59-8.87l-9.25-7.79c-4.05-3.32-7.46-7.08-10.24-11.3-2.77-4.21-4.16-9.42-4.16-15.63,0-8.76,2.69-15.46,8.06-20.1,5.37-4.64,12.68-6.96,21.93-6.96,5.72,0,10.32.94,13.81,2.81,3.48,1.87,6.12,4.32,7.93,7.34,1.8,3.02,3.04,6.21,3.7,9.57.66,3.36,1.03,6.57,1.12,9.64l-20.34,2.43c-.09-3.06-.29-5.72-.59-7.98-.31-2.25-.95-4-1.92-5.23-.97-1.23-2.47-1.85-4.49-1.85-2.2,0-3.81.89-4.82,2.68-1.01,1.79-1.52,3.57-1.52,5.36,0,3.83.95,6.96,2.84,9.38,1.89,2.42,4.38,4.96,7.46,7.59l8.85,7.53c4.67,3.83,8.61,8.17,11.82,13.02,3.21,4.85,4.82,10.85,4.82,18,0,4.85-1.15,9.25-3.43,13.21-2.29,3.96-5.53,7.08-9.71,9.38-4.18,2.3-9.14,3.45-14.86,3.45Z" fill="#1c1c1c"/>
  </g>
  <g>
    <g>
      <path d="M440.15,333.01c-3.72,0-6.76-.73-9.11-2.18-2.35-1.45-4.1-3.43-5.25-5.92-1.15-2.5-1.78-5.34-1.9-8.53-.04-1.68-.06-3.48-.06-5.4s.02-3.76.06-5.52c.12-3.19.76-6.05,1.9-8.56,1.14-2.52,2.89-4.49,5.25-5.92,2.35-1.43,5.39-2.15,9.11-2.15,2.91,0,5.38.41,7.43,1.23,2.05.82,3.71,1.89,5,3.22,1.29,1.33,2.25,2.76,2.88,4.3.63,1.53.99,3.04,1.07,4.51.04.37-.07.67-.34.89-.27.23-.58.34-.95.34h-1.23c-.33,0-.61-.09-.86-.28s-.41-.52-.49-1.01c-.78-3.64-2.24-6.14-4.39-7.49-2.15-1.35-4.86-2.03-8.13-2.03-3.72,0-6.68,1.05-8.87,3.16-2.19,2.11-3.37,5.47-3.53,10.1-.12,3.36-.12,6.79,0,10.31.16,4.62,1.34,7.99,3.53,10.1,2.19,2.11,5.15,3.16,8.87,3.16,3.27,0,5.98-.68,8.13-2.03,2.15-1.35,3.61-3.85,4.39-7.49.08-.49.25-.83.49-1.01s.53-.28.86-.28h1.23c.37,0,.68.11.95.34.27.23.38.52.34.89-.08,1.47-.44,2.98-1.07,4.51-.63,1.53-1.6,2.97-2.88,4.3-1.29,1.33-2.96,2.4-5,3.22-2.05.82-4.52,1.23-7.43,1.23Z" fill="#1c1c1c"/>
      <path d="M466.12,332.4c-.41,0-.74-.12-.98-.37s-.37-.57-.37-.98v-29.15c0-.41.12-.75.37-1.01.25-.27.57-.4.98-.4h.98c.41,0,.75.13,1.01.4.27.27.4.6.4,1.01v2.82c.74-1.43,1.8-2.5,3.19-3.19,1.39-.7,3.11-1.04,5.16-1.04h2.27c.41,0,.74.12.98.37s.37.57.37.98v.86c0,.41-.12.74-.37.98s-.57.37-.98.37h-2.64c-2.46,0-4.4.72-5.83,2.15s-2.15,3.38-2.15,5.83v19.03c0,.41-.13.74-.4.98-.27.25-.6.37-1.01.37h-.98Z" fill="#1c1c1c"/>
      <path d="M497.97,333.01c-3.97,0-7.12-1.3-9.45-3.9-2.33-2.6-3.66-6-3.99-10.22-.04-.61-.06-1.43-.06-2.46s.02-1.84.06-2.46c.2-2.78.86-5.24,1.96-7.36,1.1-2.13,2.63-3.78,4.57-4.97,1.94-1.19,4.25-1.78,6.91-1.78,2.86,0,5.3.63,7.3,1.9,2,1.27,3.55,3.09,4.63,5.46,1.08,2.37,1.63,5.2,1.63,8.47v.92c0,.41-.13.74-.4.98-.27.25-.6.37-1.01.37h-21.85v.61c.08,1.84.51,3.59,1.29,5.25.78,1.66,1.88,3.01,3.31,4.05,1.43,1.04,3.13,1.57,5.09,1.57,1.76,0,3.22-.27,4.39-.8,1.17-.53,2.1-1.11,2.79-1.75.69-.63,1.14-1.11,1.35-1.44.37-.53.65-.85.86-.95.2-.1.53-.15.98-.15h.98c.37,0,.68.11.95.34.27.23.38.52.34.89-.04.57-.36,1.28-.95,2.12-.59.84-1.43,1.67-2.52,2.49-1.08.82-2.4,1.49-3.96,2.03-1.56.53-3.29.8-5.22.8ZM488.27,314.53h19.52v-.25c0-2.05-.39-3.89-1.17-5.52-.78-1.64-1.9-2.94-3.38-3.9-1.47-.96-3.23-1.44-5.28-1.44s-3.8.48-5.25,1.44c-1.45.96-2.56,2.26-3.31,3.9-.76,1.64-1.14,3.48-1.14,5.52v.25Z" fill="#1c1c1c"/>
      <path d="M528.23,333.01c-1.96,0-3.77-.41-5.43-1.23-1.66-.82-3-1.91-4.02-3.28-1.02-1.37-1.53-2.92-1.53-4.63,0-2.78,1.13-5.01,3.38-6.69,2.25-1.68,5.18-2.76,8.78-3.25l9.7-1.35v-2.15c0-2.17-.67-3.88-1.99-5.13-1.33-1.25-3.45-1.87-6.35-1.87-2.13,0-3.85.42-5.16,1.26-1.31.84-2.21,1.93-2.7,3.28-.21.61-.59.92-1.17.92h-.98c-.49,0-.84-.13-1.04-.4-.21-.27-.31-.58-.31-.95,0-.57.21-1.29.64-2.15.43-.86,1.09-1.71,1.99-2.55.9-.84,2.07-1.54,3.5-2.12,1.43-.57,3.17-.86,5.22-.86,2.41,0,4.41.33,5.98.98,1.57.65,2.8,1.5,3.68,2.55.88,1.04,1.5,2.2,1.87,3.47.37,1.27.55,2.52.55,3.74v20.44c0,.41-.12.74-.37.98s-.57.37-.98.37h-1.04c-.41,0-.74-.12-.98-.37-.25-.25-.37-.57-.37-.98v-2.88c-.49.74-1.19,1.47-2.09,2.21-.9.74-2.06,1.36-3.47,1.87-1.41.51-3.18.77-5.31.77ZM528.84,329.45c1.88,0,3.6-.41,5.16-1.23,1.55-.82,2.79-2.08,3.71-3.77.92-1.7,1.38-3.84,1.38-6.41v-2.09l-7.92,1.1c-3.36.45-5.89,1.23-7.61,2.33-1.72,1.1-2.58,2.5-2.58,4.17,0,1.35.39,2.46,1.17,3.31.78.86,1.77,1.5,2.98,1.93,1.21.43,2.44.64,3.71.64Z" fill="#1c1c1c"/>
      <path d="M563.27,332.4c-2.13,0-3.81-.45-5.03-1.35-1.23-.9-2.09-2.13-2.58-3.68-.49-1.55-.74-3.29-.74-5.22v-18.11h-4.79c-.41,0-.74-.12-.98-.37s-.37-.57-.37-.98v-.86c0-.41.12-.74.37-.98s.57-.37.98-.37h4.79v-10.31c0-.41.12-.74.37-.98s.57-.37.98-.37h1.04c.41,0,.74.12.98.37s.37.57.37.98v10.31h7.61c.41,0,.74.12.98.37s.37.57.37.98v.86c0,.41-.12.74-.37.98s-.57.37-.98.37h-7.61v17.86c0,2.17.36,3.87,1.07,5.09.72,1.23,1.99,1.84,3.84,1.84h3.31c.41,0,.74.12.98.37s.37.57.37.98v.86c0,.41-.12.74-.37.98s-.57.37-.98.37h-3.62Z" fill="#1c1c1c"/>
      <path d="M575.24,293.91c-.41,0-.74-.12-.98-.37s-.37-.57-.37-.98v-2.33c0-.41.12-.75.37-1.01.25-.27.57-.4.98-.4h2.33c.41,0,.75.13,1.01.4.27.27.4.6.4,1.01v2.33c0,.41-.13.74-.4.98-.27.25-.6.37-1.01.37h-2.33ZM575.92,332.4c-.41,0-.74-.12-.98-.37s-.37-.57-.37-.98v-29.22c0-.41.12-.74.37-.98s.57-.37.98-.37h1.04c.41,0,.74.12.98.37s.37.57.37.98v29.22c0,.41-.12.74-.37.98s-.57.37-.98.37h-1.04Z" fill="#1c1c1c"/>
      <path d="M599.24,332.4c-.65,0-1.16-.14-1.5-.43-.35-.29-.62-.65-.83-1.1l-11.29-28.48c-.08-.25-.12-.47-.12-.68,0-.33.12-.61.37-.86s.53-.37.86-.37h1.29c.41,0,.73.11.95.34.22.23.36.42.4.58l10.37,26.51,10.37-26.51c.08-.16.22-.36.43-.58.2-.22.51-.34.92-.34h1.29c.33,0,.61.12.86.37s.37.53.37.86c0,.21-.04.43-.12.68l-11.29,28.48c-.16.45-.43.82-.8,1.1-.37.29-.88.43-1.53.43h-.98Z" fill="#1c1c1c"/>
      <path d="M631.9,333.01c-3.97,0-7.12-1.3-9.45-3.9-2.33-2.6-3.66-6-3.99-10.22-.04-.61-.06-1.43-.06-2.46s.02-1.84.06-2.46c.2-2.78.86-5.24,1.96-7.36,1.1-2.13,2.63-3.78,4.57-4.97,1.94-1.19,4.25-1.78,6.91-1.78,2.86,0,5.3.63,7.3,1.9,2,1.27,3.55,3.09,4.63,5.46,1.08,2.37,1.63,5.2,1.63,8.47v.92c0,.41-.13.74-.4.98-.27.25-.6.37-1.01.37h-21.85v.61c.08,1.84.51,3.59,1.29,5.25.78,1.66,1.88,3.01,3.31,4.05,1.43,1.04,3.13,1.57,5.09,1.57,1.76,0,3.22-.27,4.39-.8,1.17-.53,2.1-1.11,2.79-1.75.69-.63,1.14-1.11,1.35-1.44.37-.53.65-.85.86-.95.2-.1.53-.15.98-.15h.98c.37,0,.68.11.95.34.27.23.38.52.34.89-.04.57-.36,1.28-.95,2.12-.59.84-1.43,1.67-2.52,2.49-1.08.82-2.4,1.49-3.96,2.03-1.56.53-3.29.8-5.22.8ZM622.2,314.53h19.52v-.25c0-2.05-.39-3.89-1.17-5.52-.78-1.64-1.9-2.94-3.38-3.9-1.47-.96-3.23-1.44-5.28-1.44s-3.8.48-5.25,1.44c-1.45.96-2.56,2.26-3.31,3.9-.76,1.64-1.14,3.48-1.14,5.52v.25Z" fill="#1c1c1c"/>
    </g>
    <line x1="212.26" y1="310.91" x2="415.23" y2="310.91" fill="none" stroke="#191919" stroke-linecap="round" stroke-miterlimit="10" stroke-width="1.2"/>
    <g>
      <path d="M365.15,210.62l50.58-9.19v-23.75c0-2.15-1.96-3.89-4.38-3.89h-19.38c-.21.38-.47.78-.78,1.18l-27.14,34.15c-.57.72.14,1.68,1.11,1.5Z" fill="#43685c"/>
      <path d="M340.81,177.31v42.15l36.29-45.67h-32.32c-2.19,0-3.97,1.58-3.97,3.52Z" fill="#d89f00"/>
      <path d="M351.71,224.63l-10.9,13.72v37.55c0,1.32,1.2,2.38,2.68,2.38h25.38l5.68-54.48c.21-1.98-1.8-3.57-3.99-3.18l-17.38,3.15c-.6.11-1.13.42-1.48.86Z" fill="#43685c"/>
      <path d="M381.14,278.28h30.05c2.51,0,4.54-1.81,4.54-4.03v-61.85l-24.21,4.4c-2.39.43-4.18,2.2-4.4,4.36l-5.98,57.13Z" fill="#43685c"/>
    </g>
    <path d="M212.25,278.28v-103.38h27.87c4.58,0,8.92.34,13.01,1.02,4.1.68,7.73,1.98,10.9,3.89,3.17,1.91,5.66,4.64,7.46,8.17,1.8,3.53,2.71,8.19,2.71,13.98,0,4.17-.64,7.68-1.92,10.53-1.28,2.85-3.08,5.13-5.42,6.83-2.33,1.7-5.13,2.85-8.39,3.45,4.14.51,7.62,1.81,10.44,3.89,2.82,2.09,4.95,4.87,6.41,8.36,1.45,3.49,2.18,7.7,2.18,12.63,0,5.36-.73,9.98-2.18,13.85-1.45,3.87-3.55,7.04-6.27,9.51-2.73,2.47-6.1,4.3-10.11,5.49-4.01,1.19-8.61,1.79-13.81,1.79h-32.89ZM235.89,216.26h4.62c3.61,0,6.34-.53,8.19-1.6,1.85-1.06,3.1-2.62,3.77-4.66s.99-4.51.99-7.4c0-2.72-.51-5-1.52-6.83-1.01-1.83-2.51-3.21-4.49-4.15-1.98-.94-4.47-1.4-7.46-1.4h-4.1v26.04ZM235.89,262.33h5.02c5.2,0,8.79-1.28,10.77-3.83,1.98-2.55,2.97-6.3,2.97-11.23,0-3.91-.44-7.02-1.32-9.32-.88-2.3-2.34-3.98-4.36-5.04-2.03-1.06-4.76-1.6-8.19-1.6h-4.89v31.01Z" fill="#1c1c1c"/>
    <path d="M284.21,278.28v-103.38h21.28c1.31,0,2.37,1.06,2.37,2.37v85.57h22.45c1.17,0,2.13.95,2.13,2.13v13.32h-48.22Z" fill="#1c1c1c"/>
    <path d="M436.83,278.28l-12.95-103.38h17.32c1.57,0,2.89,1.19,3.05,2.75l6.05,57.49,7.7-57.45c.2-1.52,1.5-2.66,3.04-2.66h10.37c1.53,0,2.82,1.12,3.04,2.64l8.08,57.09,6.18-57.12c.17-1.56,1.48-2.74,3.05-2.74h17.06l-12.81,103.38h-18.8c-1.04,0-1.93-.76-2.08-1.79l-8.39-57.47c-.08-.52-.82-.51-.89,0l-7.9,57.45c-.14,1.04-1.03,1.81-2.08,1.81h-19.04Z" fill="#1c1c1c"/>
    <path d="M515.9,278.28v-103.38h27.08c9.33,0,16.6,1.13,21.8,3.38,5.2,2.26,8.85,5.79,10.96,10.59,2.11,4.81,3.17,11.04,3.17,18.7v37.52c0,7.74-1.06,14.06-3.17,18.95-2.11,4.89-5.75,8.49-10.9,10.78-5.15,2.3-12.35,3.45-21.6,3.45h-27.35ZM539.55,262.46h3.7c3.61,0,6.21-.51,7.79-1.53s2.58-2.55,2.97-4.59c.4-2.04.59-4.59.59-7.66v-45.05c0-3.06-.24-5.53-.73-7.4-.48-1.87-1.52-3.23-3.1-4.08-1.59-.85-4.14-1.28-7.66-1.28h-3.57v71.6Z" fill="#1c1c1c"/>
    <path d="M617.05,278.28c-6.69,0-12.29-1.15-16.78-3.45-4.49-2.3-7.88-5.85-10.17-10.66-2.29-4.81-3.57-11.04-3.83-18.7l20.21-2.94c.09,4.43.51,8,1.26,10.72.75,2.72,1.8,4.68,3.17,5.87,1.36,1.19,3.02,1.79,4.95,1.79,2.46,0,4.07-.81,4.82-2.43.75-1.62,1.12-3.32,1.12-5.1,0-4.25-1.06-7.85-3.17-10.78-2.11-2.94-4.98-5.89-8.59-8.87l-9.25-7.79c-4.05-3.32-7.46-7.08-10.24-11.3-2.77-4.21-4.16-9.42-4.16-15.63,0-8.76,2.69-15.46,8.06-20.1,5.37-4.64,12.68-6.96,21.93-6.96,5.72,0,10.32.94,13.81,2.81,3.48,1.87,6.12,4.32,7.93,7.34,1.8,3.02,3.04,6.21,3.7,9.57.66,3.36,1.03,6.57,1.12,9.64l-20.34,2.43c-.09-3.06-.29-5.72-.59-7.98-.31-2.25-.95-4-1.92-5.23-.97-1.23-2.47-1.85-4.49-1.85-2.2,0-3.81.89-4.82,2.68-1.01,1.79-1.52,3.57-1.52,5.36,0,3.83.95,6.96,2.84,9.38,1.89,2.42,4.38,4.96,7.46,7.59l8.85,7.53c4.67,3.83,8.61,8.17,11.82,13.02,3.21,4.85,4.82,10.85,4.82,18,0,4.85-1.15,9.25-3.43,13.21-2.29,3.96-5.53,7.08-9.71,9.38-4.18,2.3-9.14,3.45-14.86,3.45Z" fill="#1c1c1c"/>
  </g>
  <g>
    <rect x="712.48" y="132.79" width="482.57" height="219.71" rx="13.44" ry="13.44" fill="#1c1c1c"/>
    <g>
      <g>
        <path d="M965.07,323.17c-3.72,0-6.76-.73-9.11-2.18-2.35-1.45-4.1-3.43-5.25-5.92-1.15-2.5-1.78-5.34-1.9-8.53-.04-1.68-.06-3.48-.06-5.4s.02-3.76.06-5.52c.12-3.19.76-6.05,1.9-8.56,1.14-2.52,2.89-4.49,5.25-5.92,2.35-1.43,5.39-2.15,9.11-2.15,2.91,0,5.38.41,7.43,1.23,2.05.82,3.71,1.89,5,3.22,1.29,1.33,2.25,2.76,2.88,4.3.63,1.53.99,3.04,1.07,4.51.04.37-.07.67-.34.89-.27.23-.58.34-.95.34h-1.23c-.33,0-.61-.09-.86-.28s-.41-.52-.49-1.01c-.78-3.64-2.24-6.14-4.39-7.49-2.15-1.35-4.86-2.03-8.13-2.03-3.72,0-6.68,1.05-8.87,3.16-2.19,2.11-3.37,5.47-3.53,10.1-.12,3.36-.12,6.79,0,10.31.16,4.62,1.34,7.99,3.53,10.1,2.19,2.11,5.15,3.16,8.87,3.16,3.27,0,5.98-.68,8.13-2.03,2.15-1.35,3.61-3.85,4.39-7.49.08-.49.25-.83.49-1.01s.53-.28.86-.28h1.23c.37,0,.68.11.95.34.27.23.38.52.34.89-.08,1.47-.44,2.98-1.07,4.51-.63,1.53-1.6,2.97-2.88,4.3-1.29,1.33-2.96,2.4-5,3.22-2.05.82-4.52,1.23-7.43,1.23Z" fill="#fff"/>
        <path d="M991.03,322.55c-.41,0-.74-.12-.98-.37s-.37-.57-.37-.98v-29.15c0-.41.12-.75.37-1.01.25-.27.57-.4.98-.4h.98c.41,0,.75.13,1.01.4.27.27.4.6.4,1.01v2.82c.74-1.43,1.8-2.5,3.19-3.19,1.39-.7,3.11-1.04,5.16-1.04h2.27c.41,0,.74.12.98.37s.37.57.37.98v.86c0,.41-.12.74-.37.98s-.57.37-.98.37h-2.64c-2.46,0-4.4.72-5.83,2.15s-2.15,3.38-2.15,5.83v19.03c0,.41-.13.74-.4.98-.27.25-.6.37-1.01.37h-.98Z" fill="#fff"/>
        <path d="M1022.89,323.17c-3.97,0-7.12-1.3-9.45-3.9-2.33-2.6-3.66-6-3.99-10.22-.04-.61-.06-1.43-.06-2.46s.02-1.84.06-2.46c.2-2.78.86-5.24,1.96-7.36,1.1-2.13,2.63-3.78,4.57-4.97,1.94-1.19,4.25-1.78,6.91-1.78,2.86,0,5.3.63,7.3,1.9,2,1.27,3.55,3.09,4.63,5.46,1.08,2.37,1.63,5.2,1.63,8.47v.92c0,.41-.13.74-.4.98-.27.25-.6.37-1.01.37h-21.85v.61c.08,1.84.51,3.59,1.29,5.25.78,1.66,1.88,3.01,3.31,4.05,1.43,1.04,3.13,1.57,5.09,1.57,1.76,0,3.22-.27,4.39-.8,1.17-.53,2.1-1.11,2.79-1.75.69-.63,1.14-1.11,1.35-1.44.37-.53.65-.85.86-.95.2-.1.53-.15.98-.15h.98c.37,0,.68.11.95.34.27.23.38.52.34.89-.04.57-.36,1.28-.95,2.12-.59.84-1.43,1.67-2.52,2.49-1.08.82-2.4,1.49-3.96,2.03-1.56.53-3.29.8-5.22.8ZM1013.19,304.69h19.52v-.25c0-2.05-.39-3.89-1.17-5.52-.78-1.64-1.9-2.94-3.38-3.9-1.47-.96-3.23-1.44-5.28-1.44s-3.8.48-5.25,1.44c-1.45.96-2.56,2.26-3.31,3.9-.76,1.64-1.14,3.48-1.14,5.52v.25Z" fill="#fff"/>
        <path d="M1053.15,323.17c-1.96,0-3.77-.41-5.43-1.23-1.66-.82-3-1.91-4.02-3.28-1.02-1.37-1.53-2.92-1.53-4.63,0-2.78,1.13-5.01,3.38-6.69,2.25-1.68,5.18-2.76,8.78-3.25l9.7-1.35v-2.15c0-2.17-.67-3.88-1.99-5.13-1.33-1.25-3.45-1.87-6.35-1.87-2.13,0-3.85.42-5.16,1.26-1.31.84-2.21,1.93-2.7,3.28-.21.61-.59.92-1.17.92h-.98c-.49,0-.84-.13-1.04-.4-.21-.27-.31-.58-.31-.95,0-.57.21-1.29.64-2.15.43-.86,1.09-1.71,1.99-2.55.9-.84,2.07-1.54,3.5-2.12,1.43-.57,3.17-.86,5.22-.86,2.41,0,4.41.33,5.98.98,1.57.65,2.8,1.5,3.68,2.55.88,1.04,1.5,2.2,1.87,3.47.37,1.27.55,2.52.55,3.74v20.44c0,.41-.12.74-.37.98s-.57.37-.98.37h-1.04c-.41,0-.74-.12-.98-.37-.25-.25-.37-.57-.37-.98v-2.88c-.49.74-1.19,1.47-2.09,2.21-.9.74-2.06,1.36-3.47,1.87-1.41.51-3.18.77-5.31.77ZM1053.76,319.61c1.88,0,3.6-.41,5.16-1.23,1.55-.82,2.79-2.08,3.71-3.77.92-1.7,1.38-3.84,1.38-6.41v-2.09l-7.92,1.1c-3.36.45-5.89,1.23-7.61,2.33-1.72,1.1-2.58,2.5-2.58,4.17,0,1.35.39,2.46,1.17,3.31.78.86,1.77,1.5,2.98,1.93,1.21.43,2.44.64,3.71.64Z" fill="#fff"/>
        <path d="M1088.19,322.55c-2.13,0-3.81-.45-5.03-1.35-1.23-.9-2.09-2.13-2.58-3.68-.49-1.55-.74-3.29-.74-5.22v-18.11h-4.79c-.41,0-.74-.12-.98-.37s-.37-.57-.37-.98v-.86c0-.41.12-.74.37-.98s.57-.37.98-.37h4.79v-10.31c0-.41.12-.74.37-.98s.57-.37.98-.37h1.04c.41,0,.74.12.98.37s.37.57.37.98v10.31h7.61c.41,0,.74.12.98.37s.37.57.37.98v.86c0,.41-.12.74-.37.98s-.57.37-.98.37h-7.61v17.86c0,2.17.36,3.87,1.07,5.09.72,1.23,1.99,1.84,3.84,1.84h3.31c.41,0,.74.12.98.37s.37.57.37.98v.86c0,.41-.12.74-.37.98s-.57.37-.98.37h-3.62Z" fill="#fff"/>
        <path d="M1100.16,284.07c-.41,0-.74-.12-.98-.37s-.37-.57-.37-.98v-2.33c0-.41.12-.75.37-1.01.25-.27.57-.4.98-.4h2.33c.41,0,.75.13,1.01.4.27.27.4.6.4,1.01v2.33c0,.41-.13.74-.4.98-.27.25-.6.37-1.01.37h-2.33ZM1100.84,322.55c-.41,0-.74-.12-.98-.37s-.37-.57-.37-.98v-29.22c0-.41.12-.74.37-.98s.57-.37.98-.37h1.04c.41,0,.74.12.98.37s.37.57.37.98v29.22c0,.41-.12.74-.37.98s-.57.37-.98.37h-1.04Z" fill="#fff"/>
        <path d="M1124.16,322.55c-.65,0-1.16-.14-1.5-.43-.35-.29-.62-.65-.83-1.1l-11.29-28.48c-.08-.25-.12-.47-.12-.68,0-.33.12-.61.37-.86s.53-.37.86-.37h1.29c.41,0,.73.11.95.34.22.23.36.42.4.58l10.37,26.51,10.37-26.51c.08-.16.22-.36.43-.58.2-.22.51-.34.92-.34h1.29c.33,0,.61.12.86.37s.37.53.37.86c0,.21-.04.43-.12.68l-11.29,28.48c-.16.45-.43.82-.8,1.1-.37.29-.88.43-1.53.43h-.98Z" fill="#fff"/>
        <path d="M1156.81,323.17c-3.97,0-7.12-1.3-9.45-3.9-2.33-2.6-3.66-6-3.99-10.22-.04-.61-.06-1.43-.06-2.46s.02-1.84.06-2.46c.2-2.78.86-5.24,1.96-7.36,1.1-2.13,2.63-3.78,4.57-4.97,1.94-1.19,4.25-1.78,6.91-1.78,2.86,0,5.3.63,7.3,1.9,2,1.27,3.55,3.09,4.63,5.46,1.08,2.37,1.63,5.2,1.63,8.47v.92c0,.41-.13.74-.4.98-.27.25-.6.37-1.01.37h-21.85v.61c.08,1.84.51,3.59,1.29,5.25.78,1.66,1.88,3.01,3.31,4.05,1.43,1.04,3.13,1.57,5.09,1.57,1.76,0,3.22-.27,4.39-.8,1.17-.53,2.1-1.11,2.79-1.75.69-.63,1.14-1.11,1.35-1.44.37-.53.65-.85.86-.95.2-.1.53-.15.98-.15h.98c.37,0,.68.11.95.34.27.23.38.52.34.89-.04.57-.36,1.28-.95,2.12-.59.84-1.43,1.67-2.52,2.49-1.08.82-2.4,1.49-3.96,2.03-1.56.53-3.29.8-5.22.8ZM1147.12,304.69h19.52v-.25c0-2.05-.39-3.89-1.17-5.52-.78-1.64-1.9-2.94-3.38-3.9-1.47-.96-3.23-1.44-5.28-1.44s-3.8.48-5.25,1.44c-1.45.96-2.56,2.26-3.31,3.9-.76,1.64-1.14,3.48-1.14,5.52v.25Z" fill="#fff"/>
      </g>
      <line x1="737.18" y1="301.07" x2="940.14" y2="301.07" fill="none" stroke="#fff" stroke-linecap="round" stroke-miterlimit="10" stroke-width="1.2"/>
      <g>
        <path d="M890.07,200.78l50.58-9.19v-23.75c0-2.15-1.96-3.89-4.38-3.89h-19.38c-.21.38-.47.78-.78,1.18l-27.14,34.15c-.57.72.14,1.68,1.11,1.5Z" fill="#fff"/>
        <path d="M865.73,167.47v42.15l36.29-45.67h-32.32c-2.19,0-3.97,1.58-3.97,3.52Z" fill="#fff"/>
        <path d="M876.63,214.79l-10.9,13.72v37.55c0,1.32,1.2,2.38,2.68,2.38h25.38l5.68-54.48c.21-1.98-1.8-3.57-3.99-3.18l-17.38,3.15c-.6.11-1.13.42-1.48.86Z" fill="#fff"/>
        <path d="M906.06,268.44h30.05c2.51,0,4.54-1.81,4.54-4.03v-61.85l-24.21,4.4c-2.39.43-4.18,2.2-4.4,4.36l-5.98,57.13Z" fill="#fff"/>
      </g>
      <path d="M737.16,268.44v-103.38h27.87c4.58,0,8.92.34,13.01,1.02,4.1.68,7.73,1.98,10.9,3.89,3.17,1.91,5.66,4.64,7.46,8.17,1.8,3.53,2.71,8.19,2.71,13.98,0,4.17-.64,7.68-1.92,10.53-1.28,2.85-3.08,5.13-5.42,6.83-2.33,1.7-5.13,2.85-8.39,3.45,4.14.51,7.62,1.81,10.44,3.89,2.82,2.09,4.95,4.87,6.41,8.36,1.45,3.49,2.18,7.7,2.18,12.63,0,5.36-.73,9.98-2.18,13.85-1.45,3.87-3.55,7.04-6.27,9.51-2.73,2.47-6.1,4.3-10.11,5.49-4.01,1.19-8.61,1.79-13.81,1.79h-32.89ZM760.81,206.42h4.62c3.61,0,6.34-.53,8.19-1.6,1.85-1.06,3.1-2.62,3.77-4.66.66-2.04.99-4.51.99-7.4,0-2.72-.51-5-1.52-6.83-1.01-1.83-2.51-3.21-4.49-4.15-1.98-.94-4.47-1.4-7.46-1.4h-4.1v26.04ZM760.81,252.49h5.02c5.2,0,8.79-1.28,10.77-3.83,1.98-2.55,2.97-6.3,2.97-11.23,0-3.91-.44-7.02-1.32-9.32-.88-2.3-2.34-3.98-4.36-5.04-2.03-1.06-4.76-1.6-8.19-1.6h-4.89v31.01Z" fill="#fff"/>
      <path d="M809.13,268.44v-103.38h21.28c1.31,0,2.37,1.06,2.37,2.37v85.57h22.45c1.17,0,2.13.95,2.13,2.13v13.32h-48.22Z" fill="#fff"/>
      <path d="M961.74,268.44l-12.95-103.38h17.32c1.57,0,2.89,1.19,3.05,2.75l6.05,57.49,7.7-57.45c.2-1.52,1.5-2.66,3.04-2.66h10.37c1.53,0,2.82,1.12,3.04,2.64l8.08,57.09,6.18-57.12c.17-1.56,1.48-2.74,3.05-2.74h17.06l-12.81,103.38h-18.8c-1.04,0-1.93-.76-2.08-1.79l-8.39-57.47c-.08-.52-.82-.51-.89,0l-7.9,57.45c-.14,1.04-1.03,1.81-2.08,1.81h-19.04Z" fill="#fff"/>
      <path d="M1040.82,268.44v-103.38h27.08c9.33,0,16.6,1.13,21.8,3.38,5.2,2.26,8.85,5.79,10.96,10.59,2.11,4.81,3.17,11.04,3.17,18.7v37.52c0,7.74-1.06,14.06-3.17,18.95-2.11,4.89-5.75,8.49-10.9,10.78-5.15,2.3-12.35,3.45-21.6,3.45h-27.35ZM1064.47,252.62h3.7c3.61,0,6.21-.51,7.79-1.53,1.59-1.02,2.58-2.55,2.97-4.59.4-2.04.59-4.59.59-7.66v-45.05c0-3.06-.24-5.53-.73-7.4-.48-1.87-1.52-3.23-3.1-4.08-1.59-.85-4.14-1.28-7.66-1.28h-3.57v71.6Z" fill="#fff"/>
      <path d="M1141.97,268.44c-6.69,0-12.29-1.15-16.78-3.45-4.49-2.3-7.88-5.85-10.17-10.66-2.29-4.81-3.57-11.04-3.83-18.7l18.04-2.62c1.14-.17,2.18.69,2.24,1.85.17,3.44.56,6.3,1.18,8.56.75,2.72,1.8,4.68,3.17,5.87,1.36,1.19,3.02,1.79,4.95,1.79,2.46,0,4.07-.81,4.82-2.43.75-1.62,1.12-3.32,1.12-5.1,0-4.25-1.06-7.85-3.17-10.78-2.11-2.94-4.98-5.89-8.59-8.87l-9.25-7.79c-4.05-3.32-7.46-7.08-10.24-11.3-2.77-4.21-4.16-9.42-4.16-15.63,0-8.76,2.69-15.46,8.06-20.1,5.37-4.64,12.68-6.96,21.93-6.96,5.72,0,10.32.94,13.81,2.81,3.48,1.87,6.12,4.32,7.93,7.34,1.8,3.02,3.04,6.21,3.7,9.57.66,3.36,1.03,6.57,1.12,9.64l-18.23,2.17c-1.13.13-2.14-.72-2.19-1.85-.11-2.19-.28-4.15-.51-5.87-.31-2.25-.95-4-1.92-5.23-.97-1.23-2.47-1.85-4.49-1.85-2.2,0-3.81.89-4.82,2.68-1.01,1.79-1.52,3.57-1.52,5.36,0,3.83.95,6.96,2.84,9.38,1.89,2.42,4.38,4.96,7.46,7.59l8.85,7.53c4.67,3.83,8.61,8.17,11.82,13.02,3.21,4.85,4.82,10.85,4.82,18,0,4.85-1.15,9.25-3.43,13.21-2.29,3.96-5.53,7.08-9.71,9.38-4.18,2.3-9.14,3.45-14.86,3.45Z" fill="#fff"/>
    </g>
  </g>
</svg>