<?xml version="1.0" encoding="UTF-8"?>
<svg xmlns="http://www.w3.org/2000/svg" viewBox="0 0 32 32" fill="none">
  <!-- BlackWoods Creative - Icon Only (for small sizes) -->
  
  <!-- Forest silhouette -->
  <g transform="translate(4, 4)">
    <!-- Tree shapes -->
    <path d="M2 20h3l-1.5-6 1.5-6h-3l1.5 6L2 20z" fill="currentColor" opacity="0.6"/>
    <path d="M5 20h4l-2-8 2-8H5l2 8-2 8z" fill="currentColor" opacity="0.8"/>
    <path d="M9 20h3l-1.5-7 1.5-7H9l1.5 7L9 20z" fill="currentColor"/>
    <path d="M12 20h4l-2-9 2-9h-4l2 9-2 9z" fill="currentColor" opacity="0.9"/>
    <path d="M16 20h3l-1.5-8 1.5-8h-3l1.5 8L16 20z" fill="currentColor" opacity="0.7"/>
    <path d="M19 20h3l-1.5-6 1.5-6h-3l1.5 6L19 20z" fill="currentColor" opacity="0.5"/>
    
    <!-- Ground -->
    <rect x="0" y="20" width="24" height="1.5" fill="currentColor" opacity="0.4"/>
  </g>
</svg>
