<?xml version="1.0" encoding="UTF-8"?>
<svg id="Layer_1" data-name="Layer 1" xmlns="http://www.w3.org/2000/svg" viewBox="0 0 1366 621.983">
  <defs>
    <style>
      .cls-1 {
        fill: none;
        stroke: #191919;
        stroke-linecap: round;
        stroke-miterlimit: 10;
        stroke-width: 3.394px;
      }

      .cls-2 {
        fill: #1c1c1c;
      }
    </style>
  </defs>
  <g>
    <path class="cls-2" d="M714.929,538.493c-10.52,0-19.105-2.051-25.752-6.157-6.65-4.102-11.592-9.682-14.827-16.734-3.239-7.051-5.029-15.088-5.377-24.105-.116-4.739-.173-9.825-.173-15.261s.057-10.635.173-15.607c.348-9.017,2.138-17.082,5.377-24.192,3.234-7.11,8.177-12.687,14.827-16.734,6.646-4.047,15.231-6.07,25.752-6.07,8.208,0,15.202,1.157,20.984,3.468,5.78,2.314,10.493,5.349,14.133,9.106,3.642,3.758,6.358,7.803,8.151,12.139,1.792,4.336,2.802,8.583,3.035,12.746.114,1.039-.204,1.88-.955,2.515-.752.636-1.647.953-2.688.953h-3.468c-.927,0-1.735-.259-2.428-.78-.694-.521-1.157-1.474-1.387-2.862-2.198-10.287-6.33-17.341-12.4-21.157-6.069-3.815-13.729-5.723-22.978-5.723-10.52,0-18.875,2.978-25.058,8.931-6.186,5.956-9.51,15.465-9.972,28.528-.346,9.481-.346,19.192,0,29.135.462,13.066,3.786,22.573,9.972,28.526,6.183,5.956,14.538,8.931,25.058,8.931,9.249,0,16.909-1.908,22.978-5.723,6.07-3.815,10.202-10.865,12.4-21.157.23-1.387.694-2.34,1.387-2.861.694-.521,1.501-.78,2.428-.78h3.468c1.041,0,1.935.32,2.688.953.751.636,1.069,1.474.955,2.515-.233,4.163-1.243,8.41-3.035,12.746-1.793,4.336-4.509,8.384-8.151,12.139-3.641,3.758-8.353,6.793-14.133,9.104-5.782,2.312-12.776,3.469-20.984,3.469Z"/>
    <path class="cls-2" d="M788.283,536.758c-1.157,0-2.082-.348-2.776-1.041s-1.039-1.617-1.039-2.774v-82.373c0-1.154.346-2.108,1.039-2.862.694-.751,1.619-1.126,2.776-1.126h2.774c1.154,0,2.108.375,2.862,1.126.751.754,1.126,1.709,1.126,2.862v7.976c2.082-4.045,5.086-7.049,9.017-9.017,3.929-1.965,8.786-2.947,14.567-2.947h6.416c1.155,0,2.082.346,2.776,1.039.694.694,1.039,1.62,1.039,2.776v2.427c0,1.157-.346,2.082-1.039,2.776-.694.694-1.62,1.039-2.776,1.039h-7.456c-6.937,0-12.43,2.025-16.475,6.07-4.049,4.049-6.07,9.538-6.07,16.475v53.759c0,1.157-.375,2.081-1.126,2.774-.754.694-1.709,1.041-2.862,1.041h-2.774Z"/>
    <path class="cls-2" d="M878.285,538.493c-11.216,0-20.117-3.67-26.706-11.013-6.589-7.34-10.349-16.964-11.273-28.874-.116-1.735-.173-4.045-.173-6.937s.057-5.202.173-6.937c.578-7.861,2.428-14.797,5.55-20.809,3.122-6.01,7.426-10.692,12.919-14.047,5.489-3.352,11.994-5.029,19.51-5.029,8.091,0,14.97,1.793,20.636,5.375,5.664,3.585,10.029,8.73,13.094,15.435,3.061,6.705,4.595,14.683,4.595,23.931v2.601c0,1.157-.377,2.081-1.128,2.774-.754.695-1.707,1.041-2.861,1.041h-61.737v1.735c.23,5.202,1.444,10.145,3.641,14.827,2.195,4.682,5.316,8.497,9.365,11.446,4.045,2.949,8.844,4.422,14.394,4.422,4.969,0,9.104-.751,12.399-2.255,3.295-1.5,5.924-3.148,7.892-4.941,1.963-1.792,3.234-3.149,3.815-4.076,1.039-1.501,1.847-2.397,2.427-2.688.578-.287,1.501-.434,2.776-.434h2.774c1.041,0,1.935.32,2.688.955.751.636,1.067,1.474.955,2.515-.117,1.62-1.013,3.614-2.688,5.982-1.678,2.371-4.049,4.713-7.111,7.023-3.065,2.314-6.792,4.222-11.185,5.723-4.395,1.501-9.308,2.255-14.74,2.255ZM850.885,486.294h55.146v-.694c0-5.78-1.1-10.982-3.295-15.608-2.198-4.621-5.375-8.293-9.538-11.012-4.161-2.715-9.133-4.075-14.913-4.075s-10.726,1.359-14.828,4.075c-4.104,2.719-7.226,6.39-9.363,11.012-2.141,4.626-3.208,9.828-3.208,15.608v.694Z"/>
    <path class="cls-2" d="M963.778,538.493c-5.55,0-10.666-1.157-15.347-3.469-4.683-2.311-8.471-5.403-11.359-9.277-2.892-3.872-4.336-8.237-4.336-13.094,0-7.861,3.179-14.161,9.538-18.901,6.358-4.74,14.624-7.805,24.799-9.192l27.4-3.815v-6.069c0-6.128-1.88-10.953-5.636-14.481-3.758-3.525-9.74-5.289-17.948-5.289-6.013,0-10.868,1.186-14.567,3.554-3.701,2.371-6.243,5.463-7.63,9.279-.579,1.735-1.678,2.601-3.295,2.601h-2.774c-1.389,0-2.371-.374-2.949-1.128-.579-.751-.866-1.647-.866-2.688,0-1.617.607-3.642,1.821-6.07,1.212-2.427,3.091-4.825,5.635-7.196,2.542-2.368,5.837-4.362,9.886-5.982,4.045-1.619,8.957-2.428,14.74-2.428,6.819,0,12.456.927,16.907,2.774,4.45,1.85,7.918,4.249,10.406,7.198,2.484,2.947,4.248,6.216,5.289,9.797,1.041,3.585,1.562,7.11,1.562,10.579v57.747c0,1.157-.348,2.081-1.041,2.774-.694.694-1.62,1.041-2.774,1.041h-2.949c-1.157,0-2.081-.348-2.774-1.041-.695-.694-1.041-1.617-1.041-2.774v-8.151c-1.387,2.082-3.355,4.163-5.896,6.243-2.546,2.081-5.809,3.845-9.799,5.289-3.988,1.444-8.99,2.169-15,2.169ZM965.512,528.434c5.315,0,10.171-1.154,14.566-3.468,4.393-2.312,7.892-5.866,10.493-10.666,2.601-4.796,3.902-10.839,3.902-18.123v-5.896l-22.371,3.122c-9.481,1.273-16.648,3.468-21.504,6.589-4.855,3.122-7.283,7.054-7.283,11.793,0,3.815,1.097,6.937,3.295,9.365,2.195,2.427,5,4.248,8.41,5.462,3.409,1.214,6.908,1.821,10.493,1.821Z"/>
    <path class="cls-2" d="M1062.797,536.758c-6.012,0-10.752-1.271-14.22-3.815-3.468-2.542-5.896-6.01-7.283-10.405-1.389-4.393-2.082-9.305-2.082-14.74v-51.159h-13.526c-1.157,0-2.081-.346-2.774-1.039-.694-.694-1.041-1.619-1.041-2.776v-2.427c0-1.155.348-2.082,1.041-2.776s1.617-1.039,2.774-1.039h13.526v-29.135c0-1.154.348-2.081,1.041-2.774.694-.694,1.617-1.041,2.774-1.041h2.949c1.154,0,2.081.348,2.774,1.041.694.694,1.041,1.62,1.041,2.774v29.135h21.504c1.154,0,2.081.346,2.774,1.039.694.694,1.041,1.62,1.041,2.776v2.427c0,1.157-.348,2.082-1.041,2.776-.694.694-1.62,1.039-2.774,1.039h-21.504v50.466c0,6.129,1.01,10.925,3.035,14.393,2.02,3.469,5.636,5.202,10.839,5.202h9.363c1.155,0,2.082.348,2.776,1.041.694.694,1.039,1.62,1.039,2.774v2.428c0,1.157-.346,2.081-1.039,2.774s-1.62,1.041-2.776,1.041h-10.232Z"/>
    <path class="cls-2" d="M1096.613,428.026c-1.157,0-2.082-.348-2.776-1.041-.694-.694-1.039-1.617-1.039-2.774v-6.591c0-1.154.346-2.108,1.039-2.861.694-.751,1.619-1.128,2.776-1.128h6.589c1.154,0,2.108.377,2.862,1.128.751.752,1.126,1.707,1.126,2.861v6.591c0,1.157-.375,2.081-1.126,2.774-.754.694-1.709,1.041-2.862,1.041h-6.589ZM1098.521,536.758c-1.157,0-2.082-.348-2.776-1.041s-1.039-1.617-1.039-2.774v-82.546c0-1.155.346-2.082,1.039-2.776.694-.694,1.619-1.039,2.776-1.039h2.947c1.155,0,2.082.346,2.776,1.039s1.039,1.62,1.039,2.776v82.546c0,1.157-.346,2.081-1.039,2.774-.694.694-1.62,1.041-2.776,1.041h-2.947Z"/>
    <path class="cls-2" d="M1164.417,536.758c-1.85,0-3.267-.403-4.248-1.214-.984-.808-1.764-1.847-2.342-3.122l-31.909-80.465c-.233-.694-.346-1.328-.346-1.908,0-.924.346-1.735,1.039-2.428.694-.694,1.501-1.039,2.428-1.039h3.642c1.154,0,2.051.32,2.688.953.633.636,1.01,1.186,1.128,1.648l29.308,74.916,29.308-74.916c.23-.462.633-1.012,1.212-1.648.578-.633,1.444-.953,2.603-.953h3.641c.924,0,1.735.346,2.428,1.039.694.694,1.041,1.505,1.041,2.428,0,.579-.117,1.214-.348,1.908l-31.909,80.465c-.463,1.274-1.214,2.314-2.254,3.122-1.041.811-2.489,1.214-4.336,1.214h-2.776Z"/>
    <path class="cls-2" d="M1256.677,538.493c-11.216,0-20.117-3.67-26.706-11.013-6.589-7.34-10.349-16.964-11.273-28.874-.116-1.735-.173-4.045-.173-6.937s.057-5.202.173-6.937c.578-7.861,2.428-14.797,5.55-20.809,3.122-6.01,7.426-10.692,12.919-14.047,5.489-3.352,11.994-5.029,19.51-5.029,8.091,0,14.97,1.793,20.636,5.375,5.664,3.585,10.029,8.73,13.094,15.435,3.061,6.705,4.595,14.683,4.595,23.931v2.601c0,1.157-.377,2.081-1.128,2.774-.754.695-1.707,1.041-2.861,1.041h-61.737v1.735c.23,5.202,1.444,10.145,3.641,14.827,2.195,4.682,5.316,8.497,9.365,11.446,4.045,2.949,8.844,4.422,14.394,4.422,4.969,0,9.104-.751,12.399-2.255,3.295-1.5,5.924-3.148,7.892-4.941,1.963-1.792,3.234-3.149,3.815-4.076,1.039-1.501,1.847-2.397,2.427-2.688.578-.287,1.501-.434,2.776-.434h2.774c1.041,0,1.935.32,2.688.955.751.636,1.067,1.474.955,2.515-.117,1.62-1.013,3.614-2.688,5.982-1.678,2.371-4.049,4.713-7.111,7.023-3.065,2.314-6.792,4.222-11.185,5.723-4.395,1.501-9.308,2.255-14.74,2.255ZM1229.277,486.294h55.146v-.694c0-5.78-1.1-10.982-3.295-15.608-2.198-4.621-5.375-8.293-9.538-11.012-4.161-2.715-9.133-4.075-14.913-4.075s-10.726,1.359-14.828,4.075c-4.104,2.719-7.226,6.39-9.363,11.012-2.141,4.626-3.208,9.828-3.208,15.608v.694Z"/>
  </g>
  <line class="cls-1" x1="71.046" y1="476.062" x2="644.501" y2="476.062"/>
  <g>
    <path class="cls-2" d="M503.013,192.703l142.914-25.974v-67.101c0-6.074-5.547-10.999-12.388-10.999h-54.767c-.589,1.087-1.315,2.193-2.213,3.322l-76.677,96.501c-1.606,2.022.401,4.746,3.131,4.25Z"/>
    <path class="cls-2" d="M434.258,98.585v119.079l102.528-129.035h-91.314c-6.193,0-11.214,4.458-11.214,9.956Z"/>
    <path class="cls-2" d="M465.053,232.288l-30.794,38.756v106.094c0,3.719,3.396,6.734,7.585,6.734h71.706l16.059-153.927c.583-5.59-5.075-10.094-11.27-8.973l-49.103,8.889c-1.691.306-3.187,1.174-4.182,2.426Z"/>
    <path class="cls-2" d="M548.195,383.872h84.901c7.087,0,12.832-5.101,12.832-11.392v-174.756l-68.407,12.425c-6.751,1.226-11.803,6.23-12.44,12.321l-16.886,161.403Z"/>
  </g>
  <path class="cls-2" d="M70.998,383.872V91.784h78.757c12.935,0,25.195.964,36.766,2.885,11.571,1.927,21.836,5.59,30.794,10.999,8.958,5.409,15.985,13.105,21.088,23.079,5.098,9.979,7.651,23.14,7.651,39.485,0,11.782-1.807,21.698-5.412,29.75-3.609,8.057-8.713,14.486-15.303,19.293-6.596,4.812-14.499,8.057-23.702,9.737,11.694,1.442,21.521,5.109,29.487,10.997,7.96,5.894,13.997,13.765,18.102,23.62,4.107,9.86,6.159,21.759,6.159,35.699,0,15.146-2.052,28.19-6.159,39.126-4.105,10.941-10.019,19.895-17.729,26.864-7.715,6.975-17.234,12.143-28.554,15.506-11.327,3.37-24.327,5.049-39.006,5.049h-92.941ZM137.811,208.62h13.064c10.201,0,17.917-1.499,23.141-4.509,5.226-3.003,8.773-7.392,10.639-13.161,1.866-5.769,2.8-12.74,2.8-20.915,0-7.691-1.435-14.121-4.293-19.293-2.864-5.167-7.092-9.07-12.692-11.72-5.598-2.643-12.631-3.966-21.088-3.966h-11.571v73.563ZM137.811,338.797h14.183c14.68,0,24.822-3.605,30.421-10.818,5.598-7.212,8.398-17.789,8.398-31.733,0-11.055-1.248-19.834-3.732-26.324-2.491-6.492-6.597-11.236-12.319-14.244-5.726-3.003-13.437-4.507-23.141-4.507h-13.81v87.626Z"/>
  <path class="cls-2" d="M274.338,383.872V91.784h60.114c3.7,0,6.699,2.999,6.699,6.699v241.756h63.418c3.318,0,6.008,2.69,6.008,6.008v37.626h-136.239Z"/>
  <path class="cls-2" d="M705.528,383.872l-36.58-292.089h48.931c4.436,0,8.157,3.349,8.621,7.761l17.098,162.444,21.762-162.328c.577-4.304,4.249-7.517,8.592-7.517h29.305c4.318,0,7.978,3.178,8.583,7.454l22.833,161.308,17.453-161.386c.476-4.401,4.192-7.737,8.618-7.737h48.207l-36.207,292.089h-53.104c-2.943,0-5.44-2.159-5.865-5.071l-23.714-162.367c-.213-1.461-2.324-1.452-2.525.01l-22.333,162.307c-.404,2.934-2.911,5.12-5.872,5.12h-53.805Z"/>
  <path class="cls-2" d="M928.958,383.872V91.784h76.518c26.372,0,46.901,3.189,61.587,9.556,14.68,6.373,25.007,16.352,30.98,29.931,5.971,13.584,8.958,31.192,8.958,52.827v106.017c0,21.879-2.987,39.729-8.958,53.55-5.973,13.828-16.236,23.981-30.794,30.471-14.556,6.492-34.9,9.737-61.027,9.737h-77.265ZM995.772,339.158h10.451c10.2,0,17.543-1.443,22.022-4.328,4.478-2.885,7.278-7.211,8.398-12.982,1.12-5.769,1.68-12.98,1.68-21.636v-127.292c0-8.654-.689-15.625-2.053-20.915-1.369-5.286-4.293-9.133-8.771-11.539-4.48-2.401-11.699-3.607-21.649-3.607h-10.078v202.299Z"/>
  <path class="cls-2" d="M1214.736,383.872c-18.913,0-34.712-3.247-47.404-9.737-12.69-6.492-22.272-16.526-28.739-30.11-6.474-13.579-10.078-31.192-10.824-52.827l57.107-8.295c.245,12.503,1.429,22.6,3.546,30.291,2.111,7.696,5.097,13.224,8.958,16.587,3.855,3.37,8.521,5.049,13.997,5.049,6.963,0,11.507-2.282,13.624-6.852,2.111-4.563,3.171-9.375,3.171-14.423,0-12.018-2.986-22.177-8.957-30.471-5.973-8.294-14.061-16.645-24.263-25.062l-26.127-21.996c-11.449-9.376-21.09-20.015-28.928-31.914-7.839-11.901-11.757-26.622-11.757-44.173,0-24.758,7.587-43.69,22.768-56.795,15.175-13.1,35.832-19.653,61.96-19.653,16.172,0,29.172,2.648,39.005,7.933,9.828,5.29,17.292,12.203,22.395,20.734,5.098,8.537,8.585,17.551,10.453,27.045,1.866,9.5,2.922,18.572,3.171,27.226l-57.48,6.852c-.251-8.654-.81-16.166-1.68-22.538-.875-6.367-2.676-11.297-5.412-14.785-2.741-3.482-6.969-5.228-12.69-5.228-6.223,0-10.767,2.524-13.624,7.573-2.864,5.047-4.293,10.096-4.293,15.144,0,10.818,2.672,19.653,8.025,26.505,5.348,6.85,12.376,14.007,21.09,21.455l25.007,21.277c13.187,10.818,24.32,23.077,33.407,36.78,9.08,13.704,13.624,30.652,13.624,50.846,0,13.703-3.237,26.143-9.705,37.321-6.474,11.18-15.618,20.013-27.434,26.505-11.822,6.49-25.819,9.737-41.992,9.737Z"/>
</svg>