<?xml version="1.0" encoding="UTF-8"?>
<svg id="Layer_1" data-name="Layer 1" xmlns="http://www.w3.org/2000/svg" viewBox="0 0 1366 621.983">
  <defs>
    <style>
      .cls-1 {
        fill: #fff;
      }

      .cls-2 {
        fill: none;
        stroke: #fff;
        stroke-linecap: round;
        stroke-miterlimit: 10;
        stroke-width: 3.401px;
      }
    </style>
  </defs>
  <g>
    <path class="cls-1" d="M714.988,538.916c-10.54,0-19.141-2.055-25.8-6.168-6.662-4.11-11.614-9.7-14.854-16.765-3.245-7.064-5.039-15.116-5.387-24.15-.116-4.748-.173-9.843-.173-15.289s.057-10.654.173-15.636c.348-9.034,2.142-17.114,5.387-24.237,3.24-7.123,8.192-12.711,14.854-16.765,6.659-4.054,15.26-6.082,25.8-6.082,8.223,0,15.23,1.159,21.023,3.474,5.791,2.318,10.512,5.359,14.16,9.123,3.649,3.765,6.369,7.818,8.166,12.162,1.795,4.344,2.807,8.599,3.041,12.77.114,1.041-.204,1.883-.956,2.519-.754.638-1.65.955-2.693.955h-3.474c-.929,0-1.738-.26-2.433-.781-.695-.522-1.159-1.476-1.39-2.868-2.202-10.306-6.342-17.374-12.423-21.196-6.08-3.822-13.754-5.733-23.02-5.733-10.54,0-18.91,2.984-25.105,8.948-6.198,5.967-9.528,15.494-9.991,28.581-.347,9.499-.347,19.228,0,29.189.463,13.09,3.793,22.615,9.991,28.579,6.194,5.967,14.565,8.948,25.105,8.948,9.266,0,16.94-1.911,23.02-5.733,6.082-3.822,10.221-10.885,12.423-21.196.231-1.39.695-2.344,1.39-2.866.695-.522,1.504-.781,2.433-.781h3.474c1.043,0,1.939.32,2.693.955.752.638,1.071,1.476.956,2.519-.234,4.171-1.246,8.426-3.041,12.77-1.797,4.344-4.517,8.4-8.166,12.162-3.647,3.765-8.369,6.806-14.16,9.121-5.792,2.317-12.799,3.476-21.023,3.476Z"/>
    <path class="cls-1" d="M788.479,537.178c-1.159,0-2.086-.348-2.781-1.043-.695-.695-1.041-1.62-1.041-2.779v-82.526c0-1.156.347-2.112,1.041-2.868.695-.752,1.622-1.128,2.781-1.128h2.779c1.156,0,2.112.376,2.868,1.128.752.755,1.128,1.712,1.128,2.868v7.991c2.086-4.053,5.096-7.063,9.034-9.034,3.937-1.968,8.802-2.953,14.594-2.953h6.428c1.157,0,2.086.347,2.781,1.041.695.695,1.041,1.623,1.041,2.781v2.431c0,1.159-.347,2.086-1.041,2.781s-1.623,1.041-2.781,1.041h-7.47c-6.95,0-12.453,2.029-16.506,6.082s-6.082,9.556-6.082,16.506v53.859c0,1.159-.376,2.084-1.128,2.779-.755.695-1.712,1.043-2.868,1.043h-2.779Z"/>
    <path class="cls-1" d="M878.648,538.916c-11.236,0-20.155-3.677-26.756-11.034-6.602-7.354-10.368-16.996-11.294-28.927-.116-1.738-.173-4.053-.173-6.95s.057-5.212.173-6.95c.579-7.875,2.433-14.825,5.56-20.848,3.127-6.021,7.44-10.712,12.943-14.073,5.5-3.358,12.016-5.039,19.546-5.039,8.106,0,14.998,1.797,20.674,5.385,5.675,3.592,10.048,8.746,13.118,15.464,3.067,6.718,4.604,14.71,4.604,23.975v2.606c0,1.159-.378,2.084-1.13,2.779-.755.696-1.71,1.043-2.866,1.043h-61.852v1.738c.231,5.212,1.447,10.164,3.647,14.854,2.199,4.69,5.326,8.513,9.382,11.467,4.053,2.954,8.861,4.43,14.421,4.43,4.978,0,9.121-.752,12.422-2.259,3.301-1.502,5.935-3.154,7.906-4.95,1.967-1.795,3.24-3.155,3.822-4.084,1.041-1.504,1.851-2.402,2.431-2.693.579-.288,1.504-.435,2.781-.435h2.779c1.043,0,1.939.32,2.693.956.752.638,1.069,1.476.956,2.519-.118,1.623-1.015,3.621-2.693,5.993-1.681,2.375-4.056,4.721-7.125,7.036-3.07,2.318-6.804,4.229-11.205,5.733-4.403,1.504-9.325,2.259-14.768,2.259ZM851.197,486.62h55.248v-.695c0-5.791-1.102-11.003-3.301-15.637-2.202-4.63-5.385-8.308-9.556-11.032-4.169-2.72-9.15-4.082-14.941-4.082s-10.746,1.362-14.856,4.082c-4.112,2.724-7.239,6.402-9.381,11.032-2.145,4.635-3.214,9.847-3.214,15.637v.695Z"/>
    <path class="cls-1" d="M964.3,538.916c-5.56,0-10.685-1.159-15.376-3.476-4.692-2.315-8.487-5.413-11.38-9.294-2.897-3.88-4.344-8.253-4.344-13.118,0-7.875,3.185-14.187,9.556-18.937,6.369-4.749,14.652-7.82,24.845-9.209l27.451-3.822v-6.08c0-6.139-1.883-10.973-5.647-14.508-3.765-3.531-9.758-5.299-17.982-5.299-6.024,0-10.888,1.189-14.594,3.561-3.708,2.375-6.255,5.474-7.645,9.296-.58,1.738-1.681,2.606-3.301,2.606h-2.779c-1.391,0-2.375-.374-2.954-1.13-.58-.752-.868-1.65-.868-2.693,0-1.62.608-3.649,1.825-6.082,1.215-2.431,3.096-4.834,5.645-7.21,2.547-2.372,5.848-4.37,9.904-5.993,4.053-1.622,8.974-2.433,14.768-2.433,6.832,0,12.479.929,16.939,2.779,4.458,1.854,7.932,4.257,10.425,7.211,2.488,2.953,4.256,6.227,5.299,9.816,1.043,3.592,1.565,7.123,1.565,10.599v57.854c0,1.159-.348,2.084-1.043,2.779s-1.623,1.043-2.779,1.043h-2.954c-1.159,0-2.084-.348-2.779-1.043-.696-.695-1.043-1.62-1.043-2.779v-8.166c-1.39,2.086-3.361,4.171-5.907,6.255-2.55,2.084-5.82,3.852-9.817,5.299-3.996,1.447-9.006,2.173-15.028,2.173ZM966.037,528.838c5.325,0,10.19-1.156,14.593-3.474,4.401-2.317,7.906-5.877,10.512-10.685,2.606-4.805,3.909-10.859,3.909-18.157v-5.907l-22.412,3.127c-9.499,1.275-16.679,3.474-21.544,6.602-4.864,3.127-7.296,7.067-7.296,11.815,0,3.822,1.099,6.95,3.301,9.382,2.199,2.431,5.009,4.256,8.426,5.472,3.415,1.216,6.92,1.825,10.512,1.825Z"/>
    <path class="cls-1" d="M1063.503,537.178c-6.023,0-10.772-1.274-14.246-3.822-3.474-2.547-5.907-6.021-7.296-10.424-1.391-4.401-2.086-9.322-2.086-14.768v-51.254h-13.551c-1.159,0-2.084-.347-2.779-1.041-.695-.695-1.043-1.622-1.043-2.781v-2.431c0-1.157.348-2.086,1.043-2.781.695-.695,1.62-1.041,2.779-1.041h13.551v-29.189c0-1.156.348-2.084,1.043-2.779s1.62-1.043,2.779-1.043h2.954c1.156,0,2.084.348,2.779,1.043.695.695,1.043,1.623,1.043,2.779v29.189h21.544c1.156,0,2.084.347,2.779,1.041s1.043,1.623,1.043,2.781v2.431c0,1.159-.348,2.086-1.043,2.781s-1.623,1.041-2.779,1.041h-21.544v50.56c0,6.141,1.012,10.945,3.041,14.419,2.024,3.476,5.647,5.212,10.859,5.212h9.381c1.157,0,2.086.348,2.781,1.043.695.695,1.041,1.623,1.041,2.779v2.433c0,1.159-.347,2.084-1.041,2.779-.695.695-1.623,1.043-2.781,1.043h-10.251Z"/>
    <path class="cls-1" d="M1097.382,428.244c-1.159,0-2.086-.348-2.781-1.043-.695-.695-1.041-1.62-1.041-2.779v-6.603c0-1.156.347-2.112,1.041-2.866.695-.752,1.622-1.13,2.781-1.13h6.602c1.156,0,2.112.378,2.868,1.13.752.754,1.128,1.71,1.128,2.866v6.603c0,1.159-.376,2.084-1.128,2.779-.755.695-1.712,1.043-2.868,1.043h-6.602ZM1099.293,537.178c-1.159,0-2.086-.348-2.781-1.043-.695-.695-1.041-1.62-1.041-2.779v-82.699c0-1.157.347-2.086,1.041-2.781s1.622-1.041,2.781-1.041h2.953c1.157,0,2.086.347,2.781,1.041s1.041,1.623,1.041,2.781v82.699c0,1.159-.347,2.084-1.041,2.779s-1.623,1.043-2.781,1.043h-2.953Z"/>
    <path class="cls-1" d="M1165.312,537.178c-1.854,0-3.273-.404-4.256-1.216-.986-.809-1.767-1.851-2.346-3.127l-31.968-80.615c-.234-.695-.347-1.331-.347-1.911,0-.925.347-1.738,1.041-2.433s1.504-1.041,2.433-1.041h3.649c1.156,0,2.055.32,2.693.955.634.638,1.012,1.189,1.13,1.651l29.362,75.055,29.362-75.055c.231-.463.634-1.014,1.215-1.651.579-.634,1.447-.955,2.608-.955h3.647c.925,0,1.738.347,2.433,1.041s1.043,1.507,1.043,2.433c0,.58-.118,1.216-.348,1.911l-31.968,80.615c-.464,1.277-1.216,2.318-2.258,3.127-1.043.813-2.493,1.216-4.344,1.216h-2.781Z"/>
    <path class="cls-1" d="M1257.744,538.916c-11.236,0-20.155-3.677-26.756-11.034-6.602-7.354-10.368-16.996-11.294-28.927-.116-1.738-.173-4.053-.173-6.95s.057-5.212.173-6.95c.579-7.875,2.433-14.825,5.56-20.848,3.127-6.021,7.44-10.712,12.943-14.073,5.5-3.358,12.016-5.039,19.546-5.039,8.106,0,14.998,1.797,20.674,5.385,5.675,3.592,10.048,8.746,13.118,15.464,3.067,6.718,4.604,14.71,4.604,23.975v2.606c0,1.159-.378,2.084-1.13,2.779-.755.696-1.71,1.043-2.866,1.043h-61.852v1.738c.231,5.212,1.447,10.164,3.647,14.854,2.199,4.69,5.326,8.513,9.382,11.467,4.053,2.954,8.861,4.43,14.421,4.43,4.978,0,9.121-.752,12.422-2.259,3.301-1.502,5.935-3.154,7.906-4.95,1.967-1.795,3.24-3.155,3.822-4.084,1.041-1.504,1.851-2.402,2.431-2.693.579-.288,1.504-.435,2.781-.435h2.779c1.043,0,1.939.32,2.693.956.752.638,1.069,1.476.956,2.519-.118,1.623-1.015,3.621-2.693,5.993-1.681,2.375-4.056,4.721-7.125,7.036-3.07,2.318-6.804,4.229-11.205,5.733-4.403,1.504-9.325,2.259-14.768,2.259ZM1230.293,486.62h55.248v-.695c0-5.791-1.102-11.003-3.301-15.637-2.202-4.63-5.385-8.308-9.556-11.032-4.169-2.72-9.15-4.082-14.941-4.082s-10.746,1.362-14.856,4.082c-4.112,2.724-7.239,6.402-9.381,11.032-2.145,4.635-3.214,9.847-3.214,15.637v.695Z"/>
  </g>
  <line class="cls-2" x1="69.908" y1="476.369" x2="644.43" y2="476.369"/>
  <g>
    <path class="cls-1" d="M502.679,192.483l143.18-26.023v-67.225c0-6.086-5.557-11.019-12.411-11.019h-54.869c-.59,1.089-1.318,2.197-2.217,3.329l-76.82,96.68c-1.609,2.026.401,4.755,3.137,4.258Z"/>
    <path class="cls-1" d="M433.796,98.19v119.3l102.718-129.275h-91.483c-6.205,0-11.235,4.466-11.235,9.975Z"/>
    <path class="cls-1" d="M464.647,232.142l-30.852,38.828v106.292c0,3.726,3.402,6.747,7.599,6.747h71.839l16.089-154.213c.584-5.6-5.084-10.113-11.291-8.989l-49.195,8.905c-1.694.307-3.193,1.176-4.19,2.431Z"/>
    <path class="cls-1" d="M547.944,384.008h85.059c7.1,0,12.856-5.11,12.856-11.414v-175.081l-68.535,12.448c-6.763,1.228-11.824,6.241-12.463,12.344l-16.917,161.703Z"/>
  </g>
  <path class="cls-1" d="M69.86,384.008V91.376h78.904c12.959,0,25.242.966,36.834,2.89,11.592,1.93,21.877,5.6,30.852,11.019,8.975,5.419,16.015,13.13,21.127,23.122,5.108,9.997,7.666,23.183,7.666,39.559,0,11.804-1.81,21.739-5.422,29.805-3.615,8.072-8.729,14.513-15.331,19.328-6.608,4.82-14.526,8.072-23.746,9.755,11.716,1.444,21.561,5.119,29.542,11.018,7.975,5.905,14.023,13.791,18.136,23.664,4.114,9.878,6.17,21.8,6.17,35.765,0,15.174-2.056,28.242-6.17,39.199-4.113,10.962-10.037,19.932-17.762,26.914-7.73,6.988-17.266,12.165-28.607,15.535-11.348,3.376-24.372,5.058-39.079,5.058h-93.113ZM136.798,208.43h13.088c10.22,0,17.95-1.502,23.184-4.517,5.236-3.009,8.789-7.406,10.658-13.186,1.869-5.78,2.805-12.764,2.805-20.954,0-7.706-1.438-14.147-4.301-19.328-2.869-5.177-7.106-9.087-12.716-11.741-5.608-2.648-12.655-3.973-21.127-3.973h-11.592v73.7ZM136.798,338.849h14.209c14.707,0,24.868-3.612,30.478-10.838,5.608-7.226,8.413-17.822,8.413-31.792,0-11.076-1.25-19.871-3.739-26.373-2.495-6.504-6.61-11.257-12.342-14.27-5.737-3.009-13.462-4.516-23.184-4.516h-13.836v87.789Z"/>
  <path class="cls-1" d="M273.578,384.008V91.376h60.226c3.707,0,6.712,3.005,6.712,6.712v242.205h63.536c3.324,0,6.019,2.695,6.019,6.019v37.696h-136.493Z"/>
  <path class="cls-1" d="M705.57,384.008l-36.648-292.632h49.022c4.445,0,8.172,3.356,8.637,7.776l17.13,162.746,21.803-162.63c.578-4.312,4.257-7.531,8.608-7.531h29.359c4.326,0,7.993,3.184,8.599,7.468l22.875,161.608,17.486-161.686c.477-4.409,4.199-7.751,8.634-7.751h48.297l-36.274,292.632h-53.202c-2.948,0-5.45-2.163-5.876-5.08l-23.758-162.668c-.214-1.463-2.328-1.455-2.53.01l-22.374,162.609c-.404,2.939-2.916,5.129-5.883,5.129h-53.905Z"/>
  <path class="cls-1" d="M929.416,384.008V91.376h76.66c26.421,0,46.988,3.195,61.702,9.574,14.707,6.385,25.054,16.382,31.038,29.987,5.982,13.609,8.975,31.25,8.975,52.926v106.214c0,21.92-2.993,39.803-8.975,53.649-5.984,13.853-16.267,24.025-30.852,30.527-14.583,6.504-34.964,9.755-61.14,9.755h-77.408ZM996.353,339.21h10.471c10.219,0,17.576-1.446,22.063-4.336,4.487-2.89,7.292-7.224,8.413-13.006,1.122-5.78,1.683-13.004,1.683-21.676v-127.529c0-8.67-.69-15.654-2.057-20.954-1.372-5.295-4.301-9.15-8.787-11.56-4.488-2.405-11.721-3.614-21.689-3.614h-10.097v202.675Z"/>
  <path class="cls-1" d="M1215.725,384.008c-18.948,0-34.777-3.253-47.492-9.755-12.714-6.504-22.313-16.557-28.793-30.166-6.486-13.604-10.097-31.25-10.844-52.926l51.075-7.419c3.24-.471,6.185,1.958,6.342,5.228.467,9.743,1.585,17.819,3.349,24.228,2.115,7.71,5.106,13.248,8.975,16.618,3.862,3.376,8.537,5.058,14.023,5.058,6.976,0,11.528-2.287,13.649-6.865,2.115-4.572,3.177-9.392,3.177-14.45,0-12.04-2.991-22.218-8.973-30.527-5.984-8.309-14.088-16.676-24.308-25.108l-26.176-22.037c-11.47-9.394-21.129-20.052-28.982-31.973-7.853-11.923-11.778-26.671-11.778-44.256,0-24.804,7.601-43.771,22.811-56.9,15.203-13.125,35.898-19.689,62.076-19.689,16.202,0,29.226,2.653,39.077,7.948,9.846,5.3,17.324,12.226,22.437,20.773,5.108,8.553,8.601,17.584,10.472,27.095,1.869,9.517,2.927,18.606,3.177,27.276l-51.616,6.153c-3.194.381-6.045-2.031-6.202-5.244-.304-6.208-.788-11.749-1.453-16.623-.876-6.379-2.681-11.318-5.422-14.813-2.746-3.489-6.982-5.238-12.714-5.238-6.234,0-10.787,2.529-13.649,7.587-2.869,5.056-4.301,10.114-4.301,15.172,0,10.838,2.677,19.689,8.039,26.554,5.358,6.863,12.399,14.033,21.129,21.495l25.054,21.317c13.211,10.838,24.365,23.12,33.469,36.848,9.097,13.73,13.649,30.709,13.649,50.941,0,13.728-3.243,26.192-9.723,37.391-6.486,11.201-15.647,20.051-27.485,26.554-11.844,6.502-25.867,9.755-42.07,9.755Z"/>
</svg>