<?xml version="1.0" encoding="UTF-8"?>
<svg id="Layer_1" data-name="Layer 1" xmlns="http://www.w3.org/2000/svg" viewBox="0 0 180 180">
  <defs>
    <style>
      .cls-1 {
        fill: #d89f00;
      }

      .cls-2 {
        fill: #0d1e07;
      }
    </style>
  </defs>
  <rect class="cls-2" x=".0065" y="18.7122" width="179.987" height="142.5757" rx="6.6139" ry="6.6139" transform="translate(180) rotate(90)"/>
  <g>
    <path class="cls-1" d="M70.0904,67.2279l76.7368-13.5825V18.5569c0-3.1765-2.9782-5.7515-6.6519-5.7515h-29.4066c-.3161.5684-.7063,1.1468-1.1881,1.7374l-41.1713,50.4625c-.8626,1.0572.2151,2.482,1.6811,2.2225Z"/>
    <path class="cls-1" d="M33.1728,18.0117v62.2689L88.2243,12.8055h-49.0302c-3.3255,0-6.0213,2.3309-6.0213,5.2063Z"/>
    <path class="cls-1" d="M49.7076,87.9277l-16.5348,20.2663v55.4791c0,1.9448,1.8234,3.5214,4.0727,3.5214h38.5019l8.6229-80.4918c.3131-2.9229-2.7249-5.2785-6.0514-4.692l-26.3657,4.6482c-.9081.1601-1.7113.6139-2.2456,1.2687Z"/>
    <path class="cls-1" d="M94.3502,167.1945h45.587c3.8052,0,6.89-2.6672,6.89-5.9573v-91.3838l-36.7309,6.4972c-3.6247.6412-6.3373,3.2577-6.6795,6.443l-9.0667,84.4009Z"/>
  </g>
</svg>